<svg width="33" height="33" viewBox="0 0 33 33" fill="none" xmlns="http://www.w3.org/2000/svg">
<path d="M20.9377 6.71777C22.6759 6.21731 24.4478 6.66373 25.8479 7.74609L25.8528 7.74902C26.8272 8.55742 27.4712 9.70476 27.6955 10.9453L27.7346 11.1953L27.7356 11.2051C27.8031 12.2442 27.6816 13.1638 27.2834 14.1201C27.5493 14.178 27.7677 14.2801 27.9924 14.4023H27.9914L28.1194 14.4717L28.1213 14.4727C28.5338 14.7028 28.888 14.9787 29.2317 15.292L29.384 15.4258L29.3869 15.4287C30.3755 16.3491 30.9356 17.6397 31.0783 18.957L31.1018 19.2207V19.2275L31.1008 19.5703C31.0756 20.3643 30.8897 21.1145 30.5588 21.8467C30.5183 21.9368 30.5181 21.9372 30.4768 22.0293L30.4748 22.0342C30.2102 22.5681 29.8313 22.972 29.4319 23.3721L29.4328 23.373C29.3858 23.4208 29.3386 23.4684 29.2903 23.5176L29.2863 23.5215C28.2534 24.5061 26.8412 24.9208 25.4592 24.916C25.3466 24.9164 25.3459 24.9176 25.2307 24.918C25.023 24.9185 24.8152 24.9182 24.6076 24.918C24.3835 24.9178 24.1593 24.9184 23.9348 24.9189C23.4954 24.9197 23.0557 24.92 22.6164 24.9199H18.1682C17.2823 24.9196 16.3959 24.9207 15.51 24.9219C14.5985 24.9232 13.687 24.9241 12.7756 24.9238C12.2648 24.9237 11.7541 24.9239 11.2434 24.9248H9.27267C8.42671 24.9272 7.9927 24.9284 7.67111 24.9004C7.34345 24.8718 7.13018 24.8118 6.73068 24.7012V24.7021C6.68213 24.6898 6.63321 24.6768 6.58322 24.6641H6.58127C5.08287 24.2591 3.70314 23.2691 2.9006 21.9268L2.89865 21.9238C2.24524 20.7765 1.92586 19.6165 1.89182 18.3164L1.88791 18.0547C1.88797 18.0078 1.88889 17.9611 1.88889 17.9131V17.9121C1.89667 15.971 2.42783 14.1385 3.75607 12.6611C3.799 12.6122 3.84174 12.5631 3.88596 12.5127L3.88889 12.5098C4.87911 11.4471 6.41925 10.7281 7.87619 10.6729H7.8801C8.0488 10.671 8.21705 10.6709 8.38498 10.6719H8.56955C8.76265 10.6723 8.95572 10.673 9.14865 10.6738C9.28014 10.6742 9.41181 10.6745 9.54318 10.6748C9.82969 10.6754 10.1161 10.6756 10.4026 10.6768C10.409 10.6598 10.4165 10.6432 10.4231 10.626L10.424 10.6211C11.0252 9.17368 12.5123 8.10012 13.8713 7.51953L13.8762 7.51758C14.0466 7.45181 14.2178 7.39137 14.3899 7.33398L14.5139 7.29297L14.5158 7.29199C15.9077 6.85073 17.6894 6.91357 19.0637 7.37891C19.184 7.41709 19.255 7.43443 19.3195 7.43555C19.3784 7.43655 19.4424 7.42281 19.5442 7.38086C19.6305 7.32229 19.6368 7.31896 19.7356 7.25195L19.7385 7.24902C20.082 7.03007 20.4149 6.87444 20.8069 6.75684C20.8479 6.74443 20.8937 6.73049 20.9358 6.71777H20.9377ZM17.3518 8.45117C15.6249 8.31458 14.0621 8.72691 12.7326 9.90918L12.7317 9.91016C12.6836 9.95206 12.6356 9.99388 12.5862 10.0371C12.1117 10.4802 11.7244 11.0401 11.4358 11.6289L11.4348 11.6309C11.3964 11.7057 11.3639 11.7713 11.3195 11.8193C11.2702 11.8727 11.2091 11.9004 11.1526 11.9287L11.1252 11.9434L11.094 11.9443C10.9283 11.953 10.764 11.9576 10.5988 11.96L10.5998 11.9609C10.4982 11.9629 10.3967 11.9647 10.2951 11.9668C10.2419 11.9678 10.1877 11.9677 10.133 11.9688L10.134 11.9697C8.09808 12.0098 6.29291 12.0916 4.81662 13.5713L4.61838 13.8037C3.6681 14.988 3.28228 16.5035 3.28439 18.0264V18.1543L3.29123 18.4502C3.35702 19.9123 3.87659 21.123 4.93771 22.1924L5.07346 22.3154C5.76257 22.9154 6.59912 23.2474 7.50803 23.4434C7.55786 23.4541 7.60811 23.4644 7.65939 23.4756H7.65842C8.51489 23.6332 9.41509 23.5783 10.3127 23.5781L10.799 23.5791C11.1918 23.5796 11.5849 23.579 11.9778 23.5791C12.2975 23.5791 12.6179 23.5799 12.9377 23.5801L15.6653 23.5811H15.9621C16.7548 23.581 17.5474 23.5811 18.3401 23.582C19.1566 23.5829 19.9738 23.5831 20.7903 23.583C21.2476 23.583 21.7049 23.5833 22.1623 23.584C22.5925 23.5846 23.023 23.5854 23.4533 23.585C23.6105 23.5849 23.7678 23.5846 23.925 23.585C25.622 23.589 27.2474 23.541 28.4953 22.3457C29.3083 21.4945 29.7215 20.518 29.7053 19.333V19.332C29.6117 18.0901 29.0833 17.0925 28.1936 16.2236C27.1774 15.3822 26.0051 15.1136 24.6926 15.0898C24.6424 15.0889 24.5922 15.0879 24.5403 15.0869C24.3301 15.0832 24.12 15.0794 23.9104 15.0771C23.7545 15.0754 23.5987 15.0725 23.4436 15.0693V15.0684H23.299C23.1159 15.0639 22.9382 15.0601 22.7414 14.9395L22.7092 14.9199L22.6897 14.8867C22.5784 14.6954 22.5717 14.5409 22.5637 14.3594L22.5529 14.1494V14.1484C22.5494 14.0747 22.5449 14.0009 22.5412 13.9248V13.9238C22.4547 12.592 22.2161 11.4269 21.3488 10.4102L21.343 10.4023C21.3157 10.3659 21.288 10.3294 21.26 10.292V10.291C20.4628 9.2694 18.9831 8.68537 17.6994 8.48535L17.3518 8.45117ZM24.0217 8.22363C22.9385 7.8018 21.9297 7.83429 20.8391 8.22656V8.2373C20.8684 8.25899 20.8867 8.274 20.9074 8.28711L21.0666 8.37598L21.0744 8.37988L21.341 8.55566C22.5501 9.4025 23.2465 10.6442 23.6379 12.0332L23.717 12.333L23.719 12.3389C23.8178 12.8224 23.8338 13.2943 23.8606 13.7715H25.8752C26.3485 12.7016 26.5524 11.6943 26.1779 10.5771C25.7438 9.50869 25.0703 8.70731 24.0227 8.22363H24.0217Z" fill="#797979" stroke="#797979" stroke-width="0.3"/>
<path d="M29.5195 12.8262C29.8164 12.8774 30.1094 12.9403 30.4028 13.0083C30.5393 13.0398 30.6761 13.0699 30.813 13.1C30.9006 13.1198 30.9882 13.1398 31.0757 13.1598C31.1544 13.1776 31.2331 13.1956 31.3141 13.214C31.5112 13.2754 31.6288 13.3271 31.7754 13.4707C31.8449 13.7209 31.8651 13.862 31.7633 14.1031C31.6404 14.2515 31.565 14.3024 31.3887 14.3731C30.909 14.352 30.4462 14.2366 29.9804 14.1252C29.8532 14.0949 29.7257 14.0661 29.5982 14.0373C29.5173 14.0181 29.4364 13.9988 29.3531 13.9791C29.2798 13.9619 29.2066 13.9448 29.1311 13.9271C28.9194 13.8502 28.8192 13.7766 28.6816 13.5996C28.6438 13.3396 28.6587 13.1954 28.7743 12.9591C29.0129 12.7671 29.2276 12.7982 29.5195 12.8262Z" fill="#797979"/>
<path d="M24.6533 2.7312C24.9407 2.78251 25.0341 2.85579 25.2012 3.09375C25.2229 3.41286 25.1798 3.69278 25.107 4.00286C25.0973 4.04456 25.0876 4.0862 25.0776 4.12919C25.0571 4.21646 25.0364 4.30373 25.0155 4.39093C24.9836 4.52396 24.9526 4.65725 24.9217 4.79054C24.7145 5.66962 24.7145 5.66962 24.5083 5.81689C24.3133 5.88186 24.1811 5.89443 23.9766 5.86523C23.7913 5.73633 23.7913 5.73633 23.6543 5.54297C23.6065 5.07691 23.724 4.63179 23.8293 4.18004C23.8598 4.04837 23.8883 3.91637 23.9167 3.78424C23.9361 3.69948 23.9557 3.61479 23.9753 3.5301C23.9925 3.45404 24.0098 3.37799 24.0275 3.29968C24.1504 2.97522 24.3082 2.79282 24.6533 2.7312Z" fill="#797979"/>
<path d="M18.1762 3.89541C18.6224 4.02116 18.9666 4.78293 19.199 5.14819C19.2434 5.21503 19.2877 5.28193 19.3334 5.35083C19.5918 5.7574 19.7299 6.02559 19.6582 6.50976C19.4942 6.7075 19.3947 6.75778 19.1426 6.7998C18.8933 6.75823 18.8111 6.68411 18.627 6.50976C18.4985 6.32981 18.3875 6.1409 18.2765 5.94979C18.2145 5.84486 18.1524 5.73993 18.0902 5.63507C18.0607 5.58531 18.0311 5.53555 18.0007 5.48425C17.9022 5.32402 17.7929 5.17391 17.6803 5.02328C17.5215 4.78951 17.4799 4.59711 17.5026 4.31533C17.5312 4.18945 17.5312 4.18945 17.6279 4.02426C17.8118 3.91855 17.9634 3.88285 18.1762 3.89541Z" fill="#797979"/>
<path d="M30.3574 6.70314C30.5681 6.87265 30.6068 6.98332 30.6596 7.247C30.5881 7.61722 30.2858 7.77809 29.9903 7.98492C29.7936 8.11666 29.5946 8.24415 29.3946 8.37087C29.3272 8.41521 29.2598 8.45962 29.1904 8.50532C28.8109 8.74573 28.5543 8.90183 28.1016 8.83009C27.9404 8.73342 27.9404 8.73342 27.8438 8.57228C27.7939 8.22308 27.7939 8.22308 27.8438 8.05666C28.1 7.74387 28.4324 7.55289 28.7743 7.34368C28.8816 7.27716 28.989 7.21058 29.0963 7.144C29.1471 7.11281 29.1979 7.08155 29.2502 7.04938C29.3712 6.9732 29.4875 6.89328 29.6039 6.81039C29.8575 6.65358 30.0685 6.64062 30.3574 6.70314Z" fill="#797979"/>
</svg>
