<svg width="21" height="18" viewBox="0 0 21 18" fill="none" xmlns="http://www.w3.org/2000/svg">
<path d="M18.8231 0.687378H18.176V1.81199C18.176 2.32749 17.6673 2.74703 17.0418 2.74703C16.4164 2.74703 15.9078 2.32749 15.9078 1.81199V0.687378H13.815V1.81199C13.815 2.32749 13.3061 2.74703 12.6808 2.74703C12.0555 2.74703 11.5466 2.32749 11.5466 1.81199V0.687378H9.45389V1.81199C9.45389 2.32749 8.94513 2.74703 8.3197 2.74703C7.69426 2.74703 7.1855 2.32749 7.1855 1.81199V0.687378H5.09276V1.81199C5.09276 2.32749 4.58399 2.74703 3.95869 2.74703C3.33338 2.74703 2.82449 2.32749 2.82449 1.81199V0.687378H2.17742C0.976497 0.687378 0 1.49241 0 2.48204V16.2055C0 17.1951 0.976497 18.0001 2.1769 18.0001H18.8232C20.0236 18.0001 21.0001 17.1951 21.0001 16.2055V2.48204C21.0001 1.49241 20.0236 0.687378 18.8232 0.687378H18.8231ZM19.5379 16.2054H1.46206C1.2198 16.2054 1.02343 16.0435 1.02343 15.8438V5.34727C1.02343 5.14755 1.2198 4.98566 1.46206 4.98566H19.5379C19.7802 4.98566 19.9766 5.14755 19.9766 5.34727V15.8438C19.9766 16.0435 19.7802 16.2054 19.5379 16.2054Z" fill="#525252"/>
</svg>
