<svg width="23" height="15" viewBox="0 0 23 15" fill="none" xmlns="http://www.w3.org/2000/svg">
<g clip-path="url(#clip0_351_34)">
<path fill-rule="evenodd" clip-rule="evenodd" d="M11.5684 0.000928425C13.1357 0.000928425 14.7045 0.0255019 16.2717 0.000928425C17.5179 -0.0252477 18.3818 0.500946 18.8394 1.72428C18.9871 2.13402 19.22 2.52078 19.3319 2.94388C19.6402 4.23131 20.3959 4.6934 21.6528 4.51498C22.2099 4.43965 22.9748 4.23131 22.9999 5.35101C23.0128 6.26451 22.6408 6.53481 21.8492 6.47071C21.1223 6.41836 21.209 6.9969 21.209 7.47235C21.1982 9.54347 21.1587 11.6141 21.2218 13.6868C21.2398 14.4555 21.0541 14.955 20.5205 14.9705L19.9757 14.9854H19.022C17.7164 14.9854 16.4159 15.2787 16.7642 13.2359C16.8632 12.6574 16.5313 12.488 16.0122 12.488C13.0008 12.5014 10.0017 12.5014 6.98822 12.488C6.24897 12.4768 6.16227 12.9389 6.22178 13.5329C6.34644 14.5869 6.0017 15.0234 4.90333 14.9988C1.19936 14.8952 1.84114 15.4609 1.79087 11.7968C1.7801 10.3405 1.7801 8.888 1.80369 7.42213C1.80369 6.80406 1.68262 6.37936 0.963376 6.47124C0.124596 6.55939 0.0127588 6.01824 -6.66233e-05 5.30934C-0.0108399 4.51444 0.470368 4.39799 1.00236 4.51444C2.71737 4.88465 3.35916 3.89637 3.89115 2.40433C4.67966 0.165998 5.03877 0.000928425 7.38478 0.000928425H11.5684ZM16.4698 8.46277H20.2225C20.3938 8.46277 20.5287 8.6038 20.5287 8.78596V9.78974C20.5287 9.95694 20.3938 10.098 20.2225 10.098H16.4698C16.3077 10.098 16.1702 9.95694 16.1702 9.78974V8.78596C16.1702 8.6038 16.3071 8.46277 16.4698 8.46277ZM2.95233 8.46277H6.70709C6.87998 8.46277 7.01541 8.6038 7.01541 8.78596V9.78974C7.01541 9.95694 6.87998 10.098 6.70709 10.098H2.95233C2.79176 10.098 2.65684 9.95694 2.65684 9.78974V8.78596C2.65684 8.6038 2.79227 8.46277 2.95233 8.46277ZM11.4961 5.8131C13.8134 5.8131 16.1471 5.78853 18.468 5.8131C19.4437 5.82646 19.851 5.58019 19.319 4.52566C18.9133 3.70459 18.5921 2.84024 18.2586 1.99245C17.8621 1.01539 17.1982 0.616869 16.1722 0.641443C13.8026 0.683111 11.4438 0.641443 9.07466 0.654798C4.61861 0.683111 5.57076 0.126467 3.71673 4.39799C3.68082 4.47331 3.66799 4.56519 3.61925 4.64426C3.16113 5.55561 3.53255 5.82646 4.39647 5.8131C6.76609 5.80188 9.12288 5.8131 11.4961 5.8131Z" fill="black"/>
</g>
<defs>
<clipPath id="clip0_351_34">
<rect width="23" height="15" fill="white"/>
</clipPath>
</defs>
</svg>
