<svg width="24" height="25" viewBox="0 0 24 25" fill="none" xmlns="http://www.w3.org/2000/svg">
<path d="M4.04913 3.24487C4.17289 3.339 4.24066 3.41232 4.31079 3.54739C4.31586 3.62282 4.31764 3.69845 4.3178 3.77409C4.31806 3.82209 4.31827 3.87004 4.31853 3.9195C4.31853 3.97259 4.31848 4.02569 4.31848 4.08039C4.31869 4.13651 4.3189 4.19263 4.31906 4.25046C4.31963 4.43979 4.31984 4.62907 4.32005 4.8184C4.32036 4.95363 4.32073 5.08886 4.3211 5.22409C4.32214 5.63078 4.32267 6.03748 4.32314 6.44417C4.32335 6.63557 4.32361 6.82697 4.32392 7.01841C4.32481 7.65452 4.32554 8.29063 4.32591 8.92679C4.32601 9.09187 4.32612 9.257 4.32622 9.42212C4.32628 9.46317 4.32628 9.50421 4.32633 9.54651C4.32675 10.2117 4.32806 10.8768 4.32978 11.5419C4.33151 12.2244 4.33245 12.9069 4.33261 13.5895C4.33271 13.9728 4.33318 14.3562 4.33449 14.7395C4.33564 15.0659 4.33606 15.3924 4.33559 15.7188C4.33533 15.8854 4.33554 16.0519 4.33643 16.2185C4.33737 16.3991 4.337 16.5796 4.33632 16.7601C4.3369 16.8128 4.33748 16.8656 4.33805 16.92C4.33596 17.1445 4.33449 17.2749 4.2111 17.4697C4.05635 17.6034 3.97147 17.6214 3.76874 17.6251C3.72159 17.6261 3.67449 17.6272 3.62588 17.6282C3.54942 17.6295 3.54942 17.6295 3.47145 17.6307C3.41932 17.6318 3.3672 17.6329 3.31351 17.6339C3.14663 17.6372 2.97969 17.6402 2.8128 17.6431C2.69982 17.6454 2.58684 17.6475 2.47386 17.6497C2.19655 17.6552 1.91925 17.6603 1.64189 17.6652C2.26223 18.2641 2.88272 18.8628 3.50337 19.4614C3.79161 19.7393 4.0798 20.0173 4.36783 20.2954C4.61902 20.538 4.87031 20.7804 5.12171 21.0227C5.25474 21.151 5.38766 21.2792 5.52048 21.4076C5.66915 21.5512 5.81798 21.6946 5.96686 21.838C6.0104 21.8801 6.05389 21.9222 6.09874 21.9657C6.32073 22.1791 6.54627 22.385 6.78475 22.5813C6.92651 22.7 7.0586 22.8275 7.19063 22.9561C7.23155 22.9956 7.23155 22.9956 7.27331 23.0359C7.35872 23.1185 7.44396 23.2012 7.52916 23.284C7.58777 23.3407 7.64633 23.3974 7.70494 23.4541C7.84712 23.5916 7.9891 23.7292 8.13097 23.867C8.31167 23.7923 8.42659 23.6941 8.56354 23.5592C8.60582 23.5178 8.64811 23.4765 8.6917 23.434C8.73545 23.3907 8.77925 23.3474 8.82436 23.3029C8.91065 23.218 8.99705 23.1333 9.08355 23.0487C9.1217 23.011 9.1598 22.9733 9.1991 22.9345C9.30413 22.8366 9.40994 22.7451 9.52089 22.6538C9.77736 22.4381 10.017 22.2077 10.2571 21.9754C10.3057 21.9287 10.3542 21.8819 10.4042 21.8337C10.5362 21.7067 10.6679 21.5794 10.7995 21.4522C10.9377 21.3188 11.076 21.1856 11.2142 21.0522C11.4755 20.8004 11.7365 20.5484 11.9976 20.2964C12.295 20.0093 12.5926 19.7223 12.8902 19.4353C13.5019 18.8454 14.1134 18.2554 14.7247 17.6652C14.6958 17.665 14.6669 17.6649 14.6371 17.6647C14.3357 17.6625 14.0343 17.6591 13.733 17.6547C13.6205 17.6533 13.5081 17.6523 13.3956 17.6516C13.2339 17.6505 13.0722 17.6481 12.9105 17.6455C12.8604 17.6455 12.8102 17.6454 12.7585 17.6454C12.5347 17.6406 12.4035 17.6343 12.2085 17.5215C12.0209 17.3188 12.0482 17.1021 12.0485 16.8453C12.0483 16.8023 12.0482 16.7593 12.048 16.715C12.0475 16.5705 12.0474 16.4259 12.0474 16.2813C12.0471 16.1779 12.0469 16.0744 12.0466 15.971C12.0459 15.6896 12.0456 15.4083 12.0453 15.1269C12.0452 14.9512 12.045 14.7755 12.0447 14.5998C12.044 14.0505 12.0435 13.5011 12.0433 12.9517C12.0431 12.3169 12.0422 11.6822 12.0406 11.0474C12.0395 10.5571 12.039 10.0668 12.0389 9.57651C12.0389 9.28352 12.0385 8.99052 12.0376 8.69753C12.0368 8.42198 12.0367 8.14643 12.0371 7.87093C12.0371 7.76968 12.0369 7.66849 12.0364 7.56729C12.0357 7.42929 12.036 7.29129 12.0366 7.15329C12.0359 7.09304 12.0359 7.09304 12.0353 7.03157C12.0374 6.80286 12.0643 6.65311 12.2128 6.4718C12.3765 6.39289 12.5588 6.38624 12.7361 6.42138C12.846 6.49802 12.846 6.49802 12.9454 6.62306C12.9655 6.76601 12.9729 6.88923 12.9706 7.03208C12.9708 7.07362 12.971 7.11517 12.9711 7.15798C12.9715 7.29744 12.9704 7.43685 12.9692 7.57627C12.9691 7.67615 12.9692 7.77604 12.9693 7.87592C12.9694 8.14728 12.9681 8.4186 12.9667 8.68996C12.9654 8.97348 12.9652 9.257 12.965 9.54051C12.9643 10.0774 12.9626 10.6144 12.9605 11.1514C12.9582 11.7626 12.957 12.3739 12.956 12.9852C12.9538 14.2427 12.9501 15.5002 12.9454 16.7576C12.9842 16.7571 13.0229 16.7565 13.0629 16.7559C13.4286 16.7509 13.7943 16.7471 14.1601 16.7446C14.3481 16.7433 14.5361 16.7415 14.7241 16.7386C14.9056 16.7359 15.0871 16.7344 15.2687 16.7337C15.3715 16.733 15.4742 16.7311 15.577 16.7291C16.0969 16.7289 16.0969 16.7289 16.2582 16.8748C16.3804 17.0605 16.3927 17.1461 16.347 17.3627C16.0859 17.7175 15.7291 18.0158 15.4101 18.3225C15.3554 18.3753 15.3006 18.4281 15.2458 18.481C15.1315 18.5911 15.0172 18.7012 14.9028 18.8111C14.7573 18.9511 14.6119 19.0913 14.4667 19.2315C14.3538 19.3405 14.2407 19.4493 14.1277 19.5582C14.0741 19.6098 14.0205 19.6614 13.967 19.7131C13.8918 19.7856 13.8164 19.8581 13.741 19.9304C13.6772 19.9919 13.6772 19.9919 13.612 20.0547C13.5006 20.157 13.388 20.2544 13.2714 20.3511C13.0324 20.5512 12.8094 20.7648 12.5863 20.9811C12.542 21.0239 12.4977 21.0667 12.4521 21.1107C12.3319 21.2267 12.2118 21.3429 12.0918 21.4591C11.9657 21.5811 11.8395 21.7029 11.7133 21.8246C11.3934 22.1334 11.0737 22.4424 10.7541 22.7514C10.4078 23.0862 10.0615 23.4209 9.71498 23.7553C9.58949 23.8764 9.46406 23.9976 9.33872 24.1189C9.19942 24.2537 9.05995 24.3884 8.92044 24.523C8.87894 24.5633 8.83739 24.6036 8.79458 24.6451C8.75675 24.6815 8.71891 24.718 8.67992 24.7556C8.64695 24.7875 8.61404 24.8193 8.58008 24.8521C8.43093 24.9849 8.29047 25.0028 8.08863 24.9997C7.94718 24.9707 7.88757 24.9222 7.78171 24.8281C7.72713 24.7797 7.72713 24.7797 7.6714 24.7304C7.46259 24.5377 7.25714 24.3421 7.05326 24.1445C6.979 24.0728 6.90474 24.0012 6.83043 23.9295C6.75141 23.8531 6.67244 23.7767 6.59348 23.7003C6.42816 23.5404 6.26264 23.3806 6.09711 23.2209C5.71588 22.853 5.33496 22.4848 4.95404 22.1167C4.60463 21.779 4.25516 21.4414 3.90548 21.104C3.74127 20.9455 3.57715 20.7869 3.4132 20.6283C3.33559 20.5532 3.25793 20.4782 3.18022 20.4032C3.08597 20.3123 2.99183 20.2212 2.89779 20.13C2.67287 19.9134 2.44413 19.7051 2.20299 19.5053C2.09053 19.4112 1.98419 19.3124 1.87885 19.211C1.83819 19.1719 1.79753 19.1329 1.75561 19.0927C1.71327 19.0518 1.67099 19.011 1.6274 18.9689C1.58281 18.9259 1.53822 18.883 1.49228 18.8389C1.39887 18.7489 1.30551 18.6588 1.2122 18.5687C1.06887 18.4304 0.925217 18.2923 0.78162 18.1542C0.690668 18.0665 0.599716 17.9788 0.508817 17.8911C0.465748 17.8498 0.422679 17.8084 0.378302 17.7657C0.338792 17.7275 0.299282 17.6893 0.258621 17.6499C0.223716 17.6163 0.188863 17.5826 0.152912 17.5479C0.0346955 17.4247 0.0200952 17.3666 0 17.1957C0.0192056 17.0138 0.0407136 16.9328 0.17981 16.8089C0.422836 16.6861 0.726933 16.7278 0.993666 16.733C1.06368 16.7335 1.1337 16.7338 1.20372 16.7341C1.38746 16.7351 1.57109 16.7375 1.75477 16.7404C1.94243 16.7429 2.13014 16.7441 2.3178 16.7453C2.68559 16.748 3.05337 16.7524 3.42116 16.7576C3.42105 16.7297 3.42095 16.7017 3.42084 16.6729C3.41498 15.0161 3.41053 13.3593 3.40781 11.7025C3.40744 11.5036 3.40713 11.3048 3.40676 11.1059C3.40671 11.0663 3.40666 11.0267 3.40656 10.9859C3.40546 10.3446 3.40336 9.70327 3.40096 9.06197C3.39855 8.40408 3.39708 7.74614 3.39656 7.08825C3.39619 6.68216 3.39504 6.27612 3.3929 5.87003C3.39138 5.55883 3.39122 5.24763 3.39154 4.93644C3.39148 4.80867 3.39096 4.68085 3.38997 4.55309C3.38866 4.37893 3.38897 4.20488 3.3897 4.03073C3.38892 3.97985 3.38819 3.92898 3.3874 3.87659C3.39002 3.64224 3.3941 3.53222 3.5423 3.33936C3.72661 3.21542 3.82887 3.21013 4.04913 3.24487Z" fill="#727272"/>
<path d="M23.2547 2.28688C23.4151 2.38989 23.4547 2.46038 23.5131 2.6367C23.5181 2.87579 23.3995 3.00043 23.2365 3.17408C23.1634 3.24447 23.1634 3.24447 23.0889 3.31627C23.0617 3.34259 23.0345 3.36891 23.0064 3.39604C22.9156 3.48387 22.8243 3.57135 22.7331 3.65883C22.6677 3.72185 22.6024 3.78488 22.5371 3.84796C22.3599 4.01893 22.1824 4.18956 22.0049 4.36013C21.8191 4.53862 21.6337 4.71736 21.4483 4.89605C21.1369 5.19596 20.8254 5.49571 20.5137 5.79531C20.1531 6.142 19.7927 6.48895 19.4325 6.8361C19.0861 7.16978 18.7397 7.50337 18.3931 7.83685C18.2455 7.97888 18.0979 8.12097 17.9504 8.26311C17.7769 8.43025 17.6032 8.59729 17.4294 8.76419C17.3655 8.8256 17.3017 8.88706 17.2379 8.94853C17.1511 9.03223 17.0641 9.11572 16.9771 9.19917C16.9284 9.24601 16.8797 9.29285 16.8295 9.34115C16.6559 9.49872 16.5336 9.51798 16.2934 9.5142C16.19 9.49705 16.19 9.49705 16.0591 9.39309C15.9536 9.19397 15.9316 9.11381 15.9806 8.892C16.2996 8.48904 16.7021 8.13922 17.0743 7.78139C17.1354 7.72234 17.1966 7.66335 17.2578 7.60431C17.4223 7.44553 17.587 7.28696 17.7517 7.12839C17.9246 6.962 18.0973 6.79541 18.2701 6.62892C18.5597 6.34979 18.8494 6.07076 19.1391 5.79178C19.4742 5.46929 19.809 5.14654 20.1438 4.82375C20.4318 4.54603 20.7199 4.26847 21.0081 3.9909C21.1799 3.82537 21.3518 3.65984 21.5236 3.49415C21.6847 3.33876 21.8459 3.18351 22.0073 3.02832C22.0665 2.97134 22.1257 2.91431 22.1848 2.85724C22.2654 2.77944 22.3461 2.70184 22.4269 2.62424C22.4721 2.58073 22.5172 2.53722 22.5638 2.49244C22.7821 2.29404 22.9594 2.241 23.2547 2.28688Z" fill="#727272"/>
<path d="M18.4271 2.07263C18.8204 2.34394 19.1363 2.72639 19.2252 3.19449C19.2603 3.79001 19.2443 4.2851 18.8411 4.7652C18.495 5.13635 18.0718 5.38573 17.5471 5.42501C16.9728 5.43676 16.5614 5.36183 16.118 4.99704C15.6905 4.59952 15.4845 4.18481 15.4443 3.61359C15.4545 3.09602 15.6612 2.66195 16.0252 2.28828C16.6948 1.68298 17.6487 1.60432 18.4271 2.07263ZM16.5628 2.98333C16.3789 3.24915 16.317 3.48774 16.3711 3.80035C16.4514 4.08518 16.6139 4.29231 16.8703 4.45501C17.0894 4.56912 17.306 4.5846 17.5506 4.55586C17.88 4.45365 18.0534 4.29382 18.2734 4.04534C18.3942 3.76354 18.3774 3.46026 18.2734 3.17559C18.0754 2.89923 17.8854 2.74373 17.5506 2.63986C17.1546 2.59746 16.8365 2.69492 16.5628 2.98333Z" fill="#727272"/>
<path d="M23.15 6.62306C23.5943 6.90909 23.8205 7.30056 23.9873 7.78273C24.0369 8.42147 23.9534 8.94418 23.5151 9.44642C23.1328 9.81989 22.6712 10.0025 22.1296 10.0202C21.5314 10.0015 21.0297 9.76427 20.6175 9.35072C20.2661 8.90833 20.1826 8.42454 20.2195 7.88358C20.2977 7.41375 20.557 7.0058 20.939 6.70499C21.6177 6.26487 22.4403 6.2212 23.15 6.62306ZM21.2988 7.60626C21.1284 7.85882 21.0628 8.08536 21.1091 8.38778C21.2254 8.73291 21.4289 8.93485 21.7567 9.10941C22.0889 9.19326 22.3395 9.16487 22.6359 9.0066C22.8488 8.86345 22.9976 8.66853 23.0977 8.43821C23.1372 8.13881 23.1192 7.8865 22.9407 7.63147C22.7425 7.40957 22.5504 7.25543 22.2434 7.21021C21.8314 7.18767 21.5784 7.32275 21.2988 7.60626Z" fill="#727272"/>
<path d="M9.95745 5.12915C10.1429 5.18275 10.2117 5.26423 10.3289 5.41297C10.3683 5.60447 10.3641 5.7937 10.3619 5.98837C10.3623 6.04651 10.3627 6.10469 10.363 6.16459C10.3639 6.35685 10.3629 6.549 10.3618 6.74125C10.3618 6.87482 10.362 7.00833 10.3622 7.1419C10.3624 7.42183 10.3616 7.70172 10.3601 7.98166C10.3585 8.30496 10.3585 8.6283 10.3594 8.9516C10.3602 9.26305 10.3598 9.5744 10.3589 9.88585C10.3587 10.0182 10.3587 10.1506 10.359 10.2829C10.3593 10.4678 10.3583 10.6527 10.3568 10.8376C10.3572 10.8925 10.3575 10.9473 10.3578 11.0037C10.353 11.3735 10.353 11.3735 10.2321 11.5719C10.0861 11.6929 9.99764 11.7156 9.80559 11.7156C9.65493 11.6463 9.55701 11.5769 9.43927 11.4635C9.42577 11.3563 9.42577 11.3563 9.42524 11.2211C9.42482 11.1699 9.42435 11.1187 9.42388 11.066C9.42394 11.0096 9.42399 10.9533 9.42404 10.8952C9.42367 10.836 9.42336 10.7768 9.42299 10.7158C9.42216 10.5532 9.42179 10.3906 9.42174 10.2279C9.42163 10.0922 9.42127 9.95654 9.4209 9.82081C9.42006 9.50069 9.4198 9.18051 9.41985 8.86034C9.41991 8.52998 9.41881 8.19968 9.41718 7.86932C9.41577 7.5858 9.41525 7.30229 9.4153 7.01877C9.4153 6.84941 9.41504 6.68004 9.41394 6.51063C9.41289 6.3217 9.41321 6.13283 9.41384 5.9439C9.41326 5.88773 9.41263 5.83156 9.41206 5.77368C9.41247 5.7222 9.41295 5.67077 9.41336 5.61773C9.41331 5.57306 9.41326 5.52838 9.41321 5.48235C9.47564 5.1951 9.67633 5.13833 9.95745 5.12915Z" fill="#727272"/>
<path d="M1.58957 0.774236C1.71825 0.875381 1.79026 0.936743 1.82521 1.09547C1.82537 1.16228 1.82537 1.16228 1.82547 1.23044C1.82636 1.30739 1.82636 1.30739 1.82725 1.38594C1.82683 1.44196 1.82642 1.49798 1.826 1.55566C1.82636 1.61485 1.82673 1.6741 1.8271 1.73511C1.82783 1.89731 1.82767 2.05946 1.82699 2.22167C1.82647 2.39148 1.82699 2.5613 1.82731 2.73112C1.82767 3.0163 1.8272 3.30148 1.82615 3.58666C1.82506 3.91626 1.82542 4.24586 1.82657 4.57546C1.82752 4.85852 1.82767 5.14164 1.8271 5.4247C1.82678 5.59376 1.82673 5.76277 1.82741 5.93183C1.82793 6.12025 1.82715 6.30868 1.826 6.4971C1.82642 6.55312 1.82683 6.60913 1.82725 6.66682C1.82668 6.71814 1.8261 6.76947 1.82547 6.82231C1.82537 6.86689 1.82532 6.91141 1.82521 6.95729C1.7902 7.11627 1.71799 7.17662 1.58957 7.27852C1.41274 7.34578 1.34204 7.33373 1.16108 7.27222C0.990739 7.16275 0.968916 7.10961 0.909259 6.92558C0.895967 6.80487 0.895967 6.80487 0.8956 6.67715C0.895234 6.62845 0.894868 6.57979 0.894501 6.52957C0.894606 6.47678 0.894763 6.42394 0.894868 6.36948C0.894606 6.31337 0.894344 6.25725 0.894083 6.19946C0.89335 6.01402 0.893402 5.82862 0.893507 5.64317C0.893298 5.5143 0.893088 5.38537 0.892827 5.25644C0.89246 4.98624 0.89246 4.71603 0.892722 4.44583C0.893036 4.13393 0.892408 3.82197 0.891309 3.51007C0.890263 3.20946 0.890106 2.9089 0.890263 2.60834C0.890263 2.48063 0.890001 2.35296 0.889478 2.2253C0.888797 2.04681 0.889164 1.86832 0.889792 1.68978C0.889373 1.63709 0.888954 1.58435 0.888588 1.52999C0.890629 1.25823 0.902613 1.05745 1.06625 0.824657C1.23 0.745749 1.41221 0.739093 1.58957 0.774236Z" fill="#727272"/>
<path d="M12.4908 3.22595C12.718 3.24819 12.7876 3.29099 12.9455 3.44654C12.9785 3.5912 12.9785 3.5912 12.9783 3.75693C12.9785 3.84673 12.9785 3.84673 12.9787 3.93835C12.9774 4.00067 12.9762 4.06299 12.9749 4.12722C12.9755 4.18954 12.976 4.25186 12.9766 4.3161C12.9727 4.77488 12.9727 4.77488 12.8486 4.92518C12.7023 5.03495 12.6069 5.05638 12.4222 5.06001C12.2218 4.97666 12.1358 4.90002 12.0558 4.70706C12.034 4.52373 12.0388 4.34 12.0395 4.15561C12.0386 4.10569 12.0378 4.05583 12.0369 4.0044C12.0366 3.55021 12.0366 3.55021 12.2128 3.3457C12.3175 3.24486 12.3175 3.24486 12.4908 3.22595Z" fill="#727272"/>
</svg>
