<svg width="24" height="25" viewBox="0 0 24 25" fill="none" xmlns="http://www.w3.org/2000/svg">
<path d="M12.0712 1.67221C9.75422 1.70275 10.6875 3.52365 3.9386 3.55475V14.3794C3.9386 19.058 11.0264 23.3215 12.0712 23.3215C13.116 23.3215 20.2038 19.058 20.2038 14.3794V3.55475C13.5678 3.56774 14.3036 1.64279 12.0712 1.67221ZM19.3002 14.4101C19.3002 18.1684 12.5771 22.3754 12.0712 22.3802C11.5675 22.3851 4.87043 18.139 4.84219 14.4101V4.76203C10.8413 4.73432 10.0116 3.11132 12.0712 3.08412C14.0556 3.0579 13.4015 4.77362 19.3002 4.76203V14.4101ZM8.96995 11.3203C8.79352 11.1365 8.50744 11.1365 8.331 11.3203C8.15456 11.504 8.15456 11.802 8.331 11.9858L11.2063 14.981C11.3828 15.1648 11.6689 15.1648 11.8453 14.981L16.715 9.90837C16.8914 9.72458 16.8914 9.42658 16.715 9.24279C16.5386 9.059 16.2525 9.059 16.076 9.24279L11.5258 13.9826L8.96995 11.3203Z" fill="#F40F0F"/>
<path d="M12.0712 1.67221C9.75422 1.70275 10.6875 3.52365 3.9386 3.55475V14.3794C3.9386 19.058 11.0264 23.3215 12.0712 23.3215C13.116 23.3215 20.2038 19.058 20.2038 14.3794V3.55475C13.5678 3.56774 14.3036 1.64279 12.0712 1.67221ZM19.3002 14.4101C19.3002 18.1684 12.5771 22.3754 12.0712 22.3802C11.5675 22.3851 4.87043 18.139 4.84219 14.4101V4.76203C10.8413 4.73432 10.0116 3.11132 12.0712 3.08412C14.0556 3.0579 13.4015 4.77362 19.3002 4.76203V14.4101ZM8.96995 11.3203C8.79352 11.1365 8.50744 11.1365 8.331 11.3203C8.15456 11.504 8.15456 11.802 8.331 11.9858L11.2063 14.981C11.3828 15.1648 11.6689 15.1648 11.8453 14.981L16.715 9.90837C16.8914 9.72458 16.8914 9.42658 16.715 9.24279C16.5386 9.059 16.2525 9.059 16.076 9.24279L11.5258 13.9826L8.96995 11.3203Z" fill="black" fill-opacity="0.2"/>
</svg>
