<svg width="12" height="12" viewBox="0 0 12 12" fill="none" xmlns="http://www.w3.org/2000/svg">
<path d="M2.5 11H9.5C9.76522 11 10.0196 10.8946 10.2071 10.7071C10.3946 10.5196 10.5 10.2652 10.5 10V5.5C10.5 5.23478 10.3946 4.98043 10.2071 4.79289C10.0196 4.60536 9.76522 4.5 9.5 4.5H8.5V3.5C8.5 2.83696 8.23661 2.20107 7.76777 1.73223C7.29893 1.26339 6.66304 1 6 1C5.33696 1 4.70107 1.26339 4.23223 1.73223C3.76339 2.20107 3.5 2.83696 3.5 3.5V4.5H2.5C2.23478 4.5 1.98043 4.60536 1.79289 4.79289C1.60536 4.98043 1.5 5.23478 1.5 5.5V10C1.5 10.2652 1.60536 10.5196 1.79289 10.7071C1.98043 10.8946 2.23478 11 2.5 11ZM6 8.75C5.80222 8.75 5.60888 8.69135 5.44443 8.58147C5.27998 8.47159 5.15181 8.31541 5.07612 8.13268C5.00043 7.94996 4.98063 7.74889 5.01921 7.55491C5.0578 7.36093 5.15304 7.18275 5.29289 7.04289C5.43275 6.90304 5.61093 6.8078 5.80491 6.76921C5.99889 6.73063 6.19996 6.75043 6.38268 6.82612C6.56541 6.90181 6.72159 7.02998 6.83147 7.19443C6.94135 7.35888 7 7.55222 7 7.75C7 8.01522 6.89464 8.26957 6.70711 8.45711C6.51957 8.64464 6.26522 8.75 6 8.75ZM4.5 4.5V3.5C4.5 3.10218 4.65804 2.72064 4.93934 2.43934C5.22064 2.15804 5.60218 2 6 2C6.39782 2 6.77936 2.15804 7.06066 2.43934C7.34196 2.72064 7.5 3.10218 7.5 3.5V4.5H4.5Z" fill="black"/>
</svg>
