<svg width="21" height="22" viewBox="0 0 21 22" fill="none" xmlns="http://www.w3.org/2000/svg">
<path d="M20.999 10.817V13.8588C20.999 15.4851 20.0685 16.8165 18.9327 16.8165H18.312V17.8582C18.312 19.6417 16.8643 21.0919 15.0861 21.0919H14.1457C14.0164 21.6122 13.5457 22 12.9892 22H10.7877C10.1324 22 9.5956 21.4619 9.5956 20.804V20.3035C9.5956 19.6467 10.1324 19.1085 10.7877 19.1085H12.9892C13.5438 19.1085 14.0125 19.4933 14.1447 20.0087H15.0871C16.2703 20.0087 17.2324 19.0442 17.2324 17.8582V16.8165H16.2348C15.8983 16.8165 15.6249 16.4258 15.6249 15.9451V8.73174C15.6249 8.25 15.8983 7.85926 16.2348 7.85926H16.3828V7.46655C16.3828 4.67797 14.1201 2.40971 11.3383 2.40971H9.75941C6.97763 2.40971 4.71491 4.67797 4.71491 7.46655V7.85926H4.76524C5.10173 7.85926 5.37409 8.25 5.37409 8.73174V15.9451C5.37409 16.4268 5.10173 16.8165 4.76524 16.8165H2.06635C0.929561 16.8165 0 15.4851 0 13.8588V10.817C0 9.19074 0.930548 7.85827 2.06635 7.85827H2.31206V7.46556C2.31206 3.34946 5.65237 0 9.75941 0H11.3383C15.4443 0 18.7856 3.34946 18.7856 7.46556V7.85827H18.9327C20.0695 7.85827 20.999 9.18975 20.999 10.817Z" fill="black"/>
</svg>
