<svg width="16" height="13" viewBox="0 0 16 13" fill="none" xmlns="http://www.w3.org/2000/svg">
<path d="M7.79589 0.719466C7.28165 0.604052 6.82328 0.935663 6.77202 1.4602C6.72087 1.98466 7.09635 2.50367 7.61049 2.61916L11.7587 3.55084L1.30278 11.1154C0.902957 11.4046 0.844294 12.006 1.17175 12.4587C1.49921 12.9113 2.08879 13.0437 2.48861 12.7545L12.9444 5.19001L12.5316 9.42147C12.4804 9.94593 12.8559 10.4649 13.3701 10.5804C13.6272 10.6382 13.8704 10.5841 14.0556 10.4501C14.2409 10.3161 14.3682 10.1019 14.3939 9.8397L15.0303 3.31511C15.0815 2.79065 14.706 2.27164 14.1919 2.15615L7.79589 0.719466Z" fill="white"/>
</svg>
