<svg width="24" height="24" viewBox="0 0 24 24" fill="none" xmlns="http://www.w3.org/2000/svg">
<g clip-path="url(#clip0_73_20)">
<path d="M12.0762 0.0791268C12.2684 0.266252 12.3547 0.425486 12.3772 0.698392C12.3707 0.988736 12.2515 1.16681 12.0469 1.36528C12.0097 1.40044 11.9724 1.4356 11.9341 1.47183C10.1865 3.22472 9.36112 5.78611 9.36342 8.21475C9.37908 9.8056 9.78417 11.3548 10.5469 12.75C10.5727 12.7978 10.5727 12.7978 10.5992 12.8466C11.0117 13.6002 11.5257 14.2697 12.1228 14.8862C12.1837 14.9492 12.2437 15.0129 12.3037 15.0767C13.6179 16.4423 15.4183 17.2825 17.25 17.6719C17.2864 17.6802 17.3228 17.6886 17.3603 17.6972C19.1426 18.0965 21.1402 17.8014 22.8099 17.118C23.0957 17.0053 23.3388 16.9625 23.6367 17.0713C23.804 17.1815 23.9106 17.3055 24 17.4844C24.07 17.9283 23.9192 18.2041 23.6719 18.5625C23.6535 18.5893 23.6353 18.6161 23.6164 18.6437C23.2487 19.1796 22.8445 19.6766 22.4062 20.1563C22.348 20.2219 22.348 20.2219 22.2885 20.2889C22.0594 20.5457 21.8266 20.7799 21.5625 21C21.5194 21.0379 21.4762 21.0758 21.4318 21.1148C20.8223 21.6477 20.1577 22.1024 19.4531 22.5C19.4225 22.5175 19.3918 22.5349 19.3602 22.5529C18.8319 22.851 18.2873 23.0865 17.7187 23.2969C17.6672 23.3162 17.6672 23.3162 17.6147 23.3359C16.9778 23.5714 16.3211 23.7256 15.6562 23.8594C15.594 23.8722 15.594 23.8722 15.5304 23.8853C13.9763 24.189 12.2182 24.0867 10.6915 23.6971C10.3126 23.6025 10.123 23.6641 9.78258 23.8475C9.52772 23.9661 9.2894 24.0118 9.00951 24.0126C8.97919 24.0128 8.94886 24.013 8.91764 24.0132C8.81695 24.0138 8.71631 24.0137 8.61562 24.0136C8.54306 24.0139 8.4705 24.0142 8.39794 24.0146C8.20139 24.0154 8.00489 24.0157 7.80839 24.0157C7.68539 24.0158 7.56234 24.016 7.43934 24.0162C7.00955 24.0171 6.57975 24.0175 6.14995 24.0174C5.75044 24.0173 5.35087 24.0183 4.95136 24.0198C4.60748 24.021 4.26361 24.0215 3.91973 24.0215C3.7147 24.0215 3.50972 24.0217 3.30473 24.0227C3.1117 24.0236 2.91867 24.0236 2.72564 24.023C2.65519 24.0228 2.58478 24.0231 2.51433 24.0236C1.79653 24.0291 1.1774 23.856 0.64453 23.3555C0.453748 23.1528 0.313498 22.935 0.187498 22.6875C0.168045 22.6513 0.148592 22.615 0.12853 22.5777C-0.0958139 22.0818 -0.082549 21.3929 0.0732635 20.877C0.352638 20.1925 0.788717 19.7496 1.4632 19.453C1.59375 19.4063 1.59375 19.4063 1.73437 19.4063C1.7384 19.3795 1.74248 19.3527 1.74665 19.3252C1.86187 18.6601 2.13881 18.0361 2.62645 17.5609C2.68317 17.4834 2.68317 17.4834 2.65716 17.3759C2.62575 17.253 2.58497 17.1488 2.53106 17.0341C1.16334 14.0527 1.05637 10.6914 2.18545 7.61578C2.71547 6.22917 3.47822 4.92553 4.5 3.84375C4.55198 3.78342 4.60378 3.72291 4.6553 3.66216C5.03587 3.22702 5.45086 2.84002 5.90625 2.48438C5.95125 2.44795 5.99629 2.41153 6.04265 2.37399C7.2689 1.39889 10.4482 -0.678701 12.0762 0.0791268ZM9.5625 2.01563C8.23073 2.57921 7.09828 3.31753 6.04687 4.3125C5.98153 4.37405 5.98153 4.37405 5.91487 4.43686C5.57967 4.76156 5.29481 5.11149 5.01562 5.48438C4.98637 5.52267 4.98637 5.52267 4.95651 5.56177C3.26911 7.77506 2.58947 10.6634 2.95312 13.4063C3.09164 14.3012 3.33558 15.1428 3.66501 15.9844C3.68062 16.0245 3.69623 16.0646 3.71236 16.106C3.72736 16.1432 3.7424 16.1804 3.75787 16.2188C3.77105 16.2517 3.78422 16.2845 3.79781 16.3184C3.84764 16.4138 3.90487 16.4752 3.98437 16.5469C4.0275 16.5311 4.07067 16.5152 4.11511 16.4989C5.20561 16.1101 6.30047 16.1303 7.3612 16.6115C7.67203 16.7722 7.9409 16.9725 8.20312 17.2031C8.23884 17.2344 8.27456 17.2656 8.31136 17.2978C8.75939 17.7164 9.21455 18.3614 9.30009 18.9802C9.32184 19.1307 9.34312 19.2284 9.42187 19.3594C9.62123 19.5071 9.85786 19.5966 10.0842 19.6946C10.5577 19.9094 10.882 20.3821 11.0625 20.8594C11.1619 21.1757 11.1675 21.4669 11.1621 21.7969C11.1617 21.8466 11.1613 21.8963 11.1608 21.9476C11.1597 22.0693 11.1582 22.1909 11.1562 22.3125C13.0954 22.7607 15.1397 22.6674 17.0156 21.9844C17.0524 21.9712 17.0892 21.958 17.1271 21.9443C17.9933 21.6287 18.8486 21.2185 19.5937 20.6719C19.6389 20.6394 19.6841 20.6069 19.7307 20.5734C20.3079 20.1502 20.8306 19.6855 21.3281 19.1719C21.1653 19.1176 21.058 19.1425 20.8919 19.1709C19.6657 19.3745 18.2804 19.3735 17.0625 19.125C16.9932 19.111 16.9932 19.111 16.9224 19.0968C14.5682 18.607 12.2385 17.3949 10.6875 15.5156C10.6531 15.476 10.6187 15.4364 10.5833 15.3955C8.6183 13.1035 7.7513 10.1829 7.93209 7.19006C8.0737 5.44992 8.60601 3.6653 9.56559 2.19474C9.58003 2.16656 9.59451 2.13839 9.60937 2.10938C9.5939 2.07849 9.57844 2.0475 9.5625 2.01563ZM3.65625 18.5625C3.54881 18.713 3.45862 18.8665 3.375 19.0313C3.35667 19.0673 3.33839 19.1033 3.3195 19.1404C3.18769 19.432 3.1508 19.7228 3.1214 20.0384C3.08259 20.2697 3.01317 20.4219 2.85042 20.5913C2.68753 20.691 2.53261 20.7177 2.3467 20.7422C2.04314 20.7825 1.83112 20.8531 1.60875 21.0806C1.42523 21.3541 1.40011 21.6146 1.45312 21.9375C1.54955 22.206 1.72162 22.3591 1.96125 22.5042C2.17284 22.5934 2.39545 22.5997 2.62242 22.6C2.70441 22.6004 2.7044 22.6004 2.78808 22.6006C2.87705 22.6006 2.87705 22.6006 2.96784 22.6006C3.03145 22.6007 3.09511 22.6009 3.15872 22.6011C3.33103 22.6015 3.50329 22.6016 3.67561 22.6016C3.78337 22.6016 3.89119 22.6018 3.99895 22.6019C4.37536 22.6023 4.75176 22.6025 5.12812 22.6025C5.47837 22.6024 5.82862 22.6029 6.17887 22.6037C6.48014 22.6043 6.78136 22.6045 7.08262 22.6045C7.2623 22.6045 7.44197 22.6046 7.62164 22.6051C7.79072 22.6056 7.95975 22.6056 8.12883 22.6052C8.22 22.6051 8.31117 22.6056 8.40234 22.6059C8.83598 22.6044 9.23948 22.587 9.5625 22.2656C9.73284 22.04 9.78084 21.8138 9.76795 21.534C9.72919 21.2919 9.6068 21.1237 9.42483 20.9619C9.16889 20.7792 8.92861 20.7431 8.62204 20.7029C8.40544 20.6542 8.28853 20.5914 8.16759 20.4025C8.10436 20.2369 8.08383 20.0954 8.06836 19.919C7.9874 19.1993 7.65773 18.5963 7.10011 18.1304C5.99559 17.3335 4.52512 17.5088 3.65625 18.5625Z" fill="#797979"/>
<path d="M20.0261 5.43291C20.5465 5.92233 20.9177 6.57244 21.0762 7.26562C21.1277 7.44525 21.1508 7.52311 21.3093 7.62558C21.4067 7.66331 21.5053 7.69819 21.6048 7.73034C22.064 7.89131 22.4533 8.33705 22.6787 8.75681C22.9677 9.38836 23.0088 10.0304 22.7812 10.6875C22.5101 11.328 22.1072 11.8 21.4482 12.0703C21.1954 12.1627 20.9617 12.1934 20.6927 12.1944C20.6624 12.1946 20.6322 12.1947 20.601 12.1949C20.5001 12.1954 20.3991 12.1956 20.2981 12.1958C20.2256 12.1961 20.153 12.1964 20.0805 12.1967C19.8425 12.1977 19.6045 12.1982 19.3665 12.1987C19.2844 12.1988 19.2022 12.199 19.1201 12.1992C18.7341 12.2001 18.348 12.2008 17.962 12.2012C17.5174 12.2017 17.0728 12.2029 16.6282 12.2048C16.2839 12.2062 15.9397 12.2069 15.5954 12.207C15.3901 12.2071 15.1848 12.2076 14.9795 12.2087C14.786 12.2099 14.5926 12.21 14.3992 12.2095C14.3286 12.2095 14.258 12.2098 14.1875 12.2105C13.5614 12.2159 13.0656 12.1021 12.5625 11.7188C12.49 11.6665 12.49 11.6665 12.416 11.6133C11.9169 11.1359 11.6743 10.531 11.6572 9.84961C11.6685 9.19383 11.9038 8.64605 12.3538 8.17144C12.6063 7.93219 12.8439 7.75481 13.1836 7.67283C13.3117 7.62684 13.3842 7.58869 13.4487 7.46644C13.518 7.28878 13.5689 7.1063 13.621 6.92302C13.7636 6.42619 14.05 6.00872 14.3906 5.625C14.4178 5.59336 14.445 5.56176 14.473 5.52923C15.0125 4.94423 15.8076 4.52287 16.5937 4.40625C16.6265 4.40109 16.6594 4.39598 16.6932 4.39069C17.9475 4.22297 19.0767 4.62028 20.0261 5.43291ZM15.4687 6.60937C15.0432 7.14356 14.8665 7.63547 14.8011 8.31464C14.7613 8.50495 14.699 8.61455 14.5781 8.76562C14.3758 8.88366 14.1968 8.9167 13.9658 8.95017C13.6722 8.99489 13.5036 9.08198 13.3008 9.30173C13.1412 9.5355 13.0836 9.74766 13.125 10.0312C13.2157 10.3208 13.3905 10.5197 13.6406 10.6875C13.7925 10.7381 13.9031 10.7407 14.0629 10.7413C14.1512 10.7418 14.1512 10.7418 14.2413 10.7423C14.3067 10.7424 14.3721 10.7425 14.4374 10.7427C14.5062 10.743 14.575 10.7433 14.6437 10.7436C14.8697 10.7446 15.0956 10.7451 15.3215 10.7455C15.3994 10.7457 15.4772 10.7459 15.555 10.7461C15.9206 10.747 16.2861 10.7477 16.6517 10.7481C17.0736 10.7485 17.4954 10.7497 17.9172 10.7516C18.2434 10.7531 18.5696 10.7537 18.8957 10.7539C19.0904 10.754 19.2852 10.7544 19.48 10.7556C19.6632 10.7567 19.8465 10.7569 20.0298 10.7564C20.097 10.7564 20.1641 10.7567 20.2312 10.7573C20.7688 10.763 20.7688 10.763 21.2083 10.4823C21.4124 10.259 21.4805 10.053 21.4687 9.75586C21.4344 9.49355 21.3316 9.32152 21.1406 9.14062C20.8888 8.94834 20.6077 8.92116 20.2992 8.89158C20.1282 8.85305 20.046 8.79441 19.9219 8.67187C19.7988 8.45391 19.7722 8.19877 19.7402 7.95408C19.6543 7.35098 19.3805 6.87928 18.9375 6.46875C18.9157 6.44667 18.8939 6.42464 18.8714 6.40191C18.4508 6.00202 17.876 5.82075 17.3057 5.79783C16.6184 5.81714 15.936 6.09684 15.4687 6.60937Z" fill="#797979"/>
</g>
<defs>
<clipPath id="clip0_73_20">
<rect width="24" height="24" fill="white"/>
</clipPath>
</defs>
</svg>
