<svg width="18" height="18" viewBox="0 0 18 18" fill="none" xmlns="http://www.w3.org/2000/svg">
<path d="M7.61463 0.0489445C4.68201 0.450897 2.17596 2.25148 0.888065 4.88879C-0.264475 7.25129 -0.297287 10.0239 0.801932 12.3905C1.95447 14.8679 4.28006 16.7259 6.91326 17.2755C8.02068 17.5052 9.29217 17.5216 10.3545 17.3206C13.4512 16.7341 16.0146 14.5111 17.0236 11.5251C17.3107 10.6802 17.4789 9.71222 17.4789 8.91242C17.4789 8.55148 17.4666 8.46535 17.3846 8.30949C17.2369 8.03058 17.0031 7.88703 16.6668 7.87062C16.3263 7.85422 16.0844 7.96496 15.9039 8.22336C15.789 8.38332 15.7808 8.42844 15.7275 9.07238C15.6988 9.44562 15.6373 9.92551 15.5922 10.1429C14.8047 13.9163 11.0846 16.3609 7.31932 15.5734C3.55408 14.7859 1.10545 11.0616 1.89295 7.30051C2.68865 3.49426 6.46209 1.05383 10.2519 1.89875C11.6219 2.20226 12.8072 2.87902 13.808 3.92902L14.173 4.31457L13.0861 4.33508L12.0033 4.35558L11.8105 4.47043C11.466 4.6714 11.3019 5.08566 11.4086 5.47531C11.4701 5.705 11.7367 5.9798 11.9664 6.04953C12.2084 6.11926 15.7767 6.11926 16.0187 6.04953C16.2361 5.9839 16.5027 5.7173 16.5683 5.49992C16.6381 5.25793 16.6381 1.68957 16.5683 1.44758C16.4986 1.21379 16.232 0.95949 15.99 0.893866C15.6004 0.783123 15.1902 0.947186 14.9892 1.28761C14.8908 1.45988 14.8785 1.52551 14.8621 1.96437C14.8498 2.23097 14.8293 2.44836 14.817 2.44836C14.8006 2.44836 14.7226 2.38273 14.6447 2.3007C14.5709 2.21867 14.3494 2.03 14.1566 1.87824C13 0.95949 11.7367 0.389374 10.2396 0.106365C9.6531 -0.00437737 8.22986 -0.0371895 7.61463 0.0489445Z" fill="#797979"/>
<path d="M8.41443 3.53938C8.22986 3.62141 8.05759 3.78137 7.95916 3.97415C7.88533 4.1177 7.88123 4.24485 7.88123 6.52942C7.88123 8.60481 7.88943 8.95344 7.94275 9.08469C8.01248 9.24875 10.6006 11.8738 10.8918 12.0788C11.0312 12.1773 11.0927 12.1896 11.3676 12.1896C11.6424 12.1896 11.6998 12.1773 11.8433 12.0788C12.0853 11.9066 12.2002 11.7097 12.2207 11.4308C12.2535 10.996 12.2535 10.9919 10.8713 9.60559L9.60388 8.33001V6.23001C9.60388 4.24075 9.59978 4.1177 9.52595 3.97415C9.30857 3.55579 8.82048 3.36301 8.41443 3.53938Z" fill="#797979"/>
</svg>
