<svg width="20" height="20" viewBox="0 0 20 20" fill="none" xmlns="http://www.w3.org/2000/svg">
<g clip-path="url(#clip0_87_250)">
<path d="M2.82031 0.0429688C2.64453 0.09375 2.39844 0.355469 2.34766 0.535156C2.32422 0.617188 2.30469 1.04297 2.30469 1.49219V2.30469H2.11719C1.11719 2.30469 0.214844 3.04297 0.0429687 4C-0.0117187 4.30469 -0.0117187 6.47656 0.0429687 6.78125C0.214844 7.73828 1.11719 8.47656 2.11719 8.47656H2.30469L2.3125 13.9727L2.32422 19.4727L2.41797 19.6211C2.46875 19.7031 2.58203 19.8164 2.66797 19.875C2.80078 19.9648 2.87109 19.9805 3.08594 19.9805C3.30078 19.9805 3.37109 19.9648 3.50391 19.875C3.58984 19.8164 3.70312 19.7031 3.75391 19.6211L3.84766 19.4727L3.85937 13.9727L3.86719 8.47656H4.09375C4.63281 8.47266 5.14062 8.25781 5.55078 7.85156C5.84375 7.5625 6.0625 7.16016 6.12891 6.78125C6.18359 6.47656 6.18359 4.30469 6.12891 4C5.98828 3.22266 5.3125 2.52734 4.54297 2.36328C4.39453 2.33203 4.1875 2.30469 4.07422 2.30469H3.87109L3.85937 1.41406C3.84766 0.558594 3.84375 0.523438 3.75391 0.378906C3.57031 0.0820312 3.16406 -0.0625 2.82031 0.0429688ZM4.44141 4.03516L4.58984 4.17969L4.60156 5.34375C4.60937 6.44922 4.60547 6.51172 4.53125 6.63281C4.48828 6.70312 4.39844 6.79297 4.32812 6.83594C4.20703 6.91016 4.14453 6.91406 3.03906 6.90625L1.875 6.89453L1.73047 6.74609L1.58203 6.60156V5.39062V4.18359L1.69922 4.0625C1.76562 3.99219 1.85156 3.92188 1.89453 3.90234C1.9375 3.88672 2.49609 3.875 3.13281 3.87891L4.29687 3.88672L4.44141 4.03516Z" fill="#797979"/>
<path d="M9.73437 0.0429688C9.55859 0.09375 9.3125 0.355469 9.26172 0.535156C9.23047 0.636719 9.21875 2.41016 9.21875 6.10156V11.5234H9.03125C8.03125 11.5234 7.12891 12.2617 6.95703 13.2188C6.90234 13.5234 6.90234 15.6953 6.95703 16C7.12891 16.957 8.03125 17.6953 9.02734 17.6953H9.21484L9.22656 18.582C9.23828 19.4414 9.24219 19.4766 9.33203 19.6211C9.38281 19.7031 9.49609 19.8164 9.58203 19.875C9.71484 19.9648 9.78516 19.9805 10 19.9805C10.2148 19.9805 10.2852 19.9648 10.418 19.875C10.5039 19.8164 10.6172 19.7031 10.668 19.6211C10.7578 19.4766 10.7617 19.4414 10.7734 18.5859L10.7852 17.6953H10.9727C11.9687 17.6953 12.8711 16.957 13.043 16C13.0977 15.6953 13.0977 13.5234 13.043 13.2188C12.9023 12.4414 12.2266 11.7461 11.457 11.582C11.3086 11.5508 11.0977 11.5234 10.9883 11.5234H10.7812L10.7734 6.02344L10.7617 0.527344L10.668 0.378906C10.4844 0.0820312 10.0781 -0.0625 9.73437 0.0429688ZM11.3555 13.2539L11.5039 13.3984L11.5156 14.5625C11.5234 15.668 11.5195 15.7305 11.4453 15.8516C11.4023 15.9219 11.3125 16.0117 11.2422 16.0547C11.1211 16.1289 11.0586 16.1328 9.95312 16.125L8.78906 16.1133L8.64453 15.9648L8.49609 15.8203V14.6094V13.4023L8.61328 13.2812C8.67969 13.2109 8.76562 13.1406 8.80859 13.1211C8.85156 13.1055 9.41016 13.0938 10.0469 13.0977L11.2109 13.1055L11.3555 13.2539Z" fill="#797979"/>
<path d="M16.6484 0.0429688C16.4727 0.09375 16.2266 0.355469 16.1758 0.535156C16.1484 0.628906 16.1328 1.38672 16.1328 2.64453V4.60938H15.9453C14.9453 4.60938 14.043 5.34766 13.8711 6.30469C13.8164 6.60938 13.8164 8.78125 13.8711 9.08594C14.043 10.043 14.9453 10.7812 15.9453 10.7812H16.1328L16.1406 15.1289L16.1523 19.4727L16.2461 19.6211C16.2969 19.7031 16.4102 19.8164 16.4961 19.875C16.6289 19.9648 16.6992 19.9805 16.9141 19.9805C17.1289 19.9805 17.1992 19.9648 17.332 19.875C17.418 19.8164 17.5312 19.7031 17.582 19.6211L17.6758 19.4727L17.6875 15.1289L17.6953 10.7812H17.8828C18.8828 10.7812 19.7852 10.043 19.957 9.08594C20.0117 8.78125 20.0117 6.60938 19.957 6.30469C19.8164 5.52734 19.1406 4.83203 18.3711 4.66797C18.2227 4.63672 18.0156 4.60938 17.9023 4.60938H17.6992L17.6875 2.56641L17.6758 0.527344L17.582 0.378906C17.3984 0.0820312 16.9922 -0.0625 16.6484 0.0429688ZM18.2695 6.33984L18.418 6.48438L18.4297 7.64844C18.4375 8.75391 18.4336 8.81641 18.3594 8.9375C18.3164 9.00781 18.2266 9.09766 18.1562 9.14062C18.0352 9.21484 17.9727 9.21875 16.8672 9.21094L15.7031 9.19922L15.5586 9.05078L15.4102 8.90625V7.69531V6.48828L15.5273 6.36719C15.5937 6.29688 15.6797 6.22656 15.7227 6.20703C15.7656 6.19141 16.3242 6.17969 16.9609 6.18359L18.125 6.19141L18.2695 6.33984Z" fill="#797979"/>
</g>
<defs>
<clipPath id="clip0_87_250">
<rect width="20" height="20" fill="white"/>
</clipPath>
</defs>
</svg>
