<svg width="24" height="24" viewBox="0 0 24 24" fill="none" xmlns="http://www.w3.org/2000/svg">
<mask id="path-1-outside-1_86_228" maskUnits="userSpaceOnUse" x="7.53662" y="-0.00418091" width="13" height="24" fill="black">
<rect fill="white" x="7.53662" y="-0.00418091" width="13" height="24"/>
<path d="M9.42656 1.03125C9.1875 1.0875 8.90156 1.3125 8.77968 1.54219L8.67187 1.74844V4.35C8.67187 6.89531 8.67187 6.96094 8.77031 7.15781C8.8875 7.39687 9.12656 7.60781 9.37031 7.68281C9.4875 7.71562 9.99375 7.73437 10.7859 7.73437H12.0234L12.225 9.68906C12.375 11.1422 12.4266 11.8453 12.4219 12.4031C12.4219 13.2516 12.375 14.0156 12.3281 14.0156C12.3141 14.0156 11.9109 13.7719 11.4328 13.4719C10.4344 12.8391 10.2797 12.7641 9.92812 12.7219C9.53437 12.675 9.00468 12.8531 8.68593 13.1391C8.56875 13.2469 8.50781 13.4859 8.55 13.6641C8.56875 13.7297 9.54843 14.8875 10.7297 16.2375C11.9109 17.5828 12.9328 18.7828 13.0031 18.9C13.125 19.1062 13.3125 19.6031 13.3125 19.7109C13.3125 19.7437 13.2422 19.7859 13.1531 19.8C12.9422 19.8422 12.75 20.0625 12.75 20.2641C12.75 20.3484 12.8437 20.9625 12.9562 21.6281C13.1344 22.6922 13.1719 22.8562 13.2656 22.9312C13.3219 22.9781 13.4109 23.0062 13.4719 22.9922C13.5234 22.9781 14.9625 22.7391 16.6641 22.4531C20.3578 21.8344 20.0062 21.9047 20.0859 21.7781C20.1469 21.6891 20.1281 21.5391 19.9406 20.4187C19.8281 19.725 19.7062 19.1156 19.6828 19.0594C19.5891 18.8812 19.4391 18.7969 19.2094 18.7969H18.9891L18.9562 18.5859C18.8953 18.1594 18.9609 17.8875 19.4672 16.5656C19.7625 15.7922 19.8047 15.5203 19.8047 14.3672C19.8047 13.2656 19.7859 13.0922 19.4953 11.2969C19.2797 9.96562 19.2562 9.87187 19.0641 9.67031C18.7734 9.36562 18.4031 9.31406 17.8359 9.50156C17.6672 9.55781 17.6016 9.5625 17.5875 9.52031C17.55 9.40312 17.3391 9.19687 17.1844 9.12187C16.9687 9.01875 16.5094 9.02344 16.2234 9.13594L15.9891 9.225L15.8719 9.04687C15.6375 8.69531 15.15 8.58281 14.625 8.76562C14.4844 8.8125 14.3625 8.85 14.3578 8.84531C14.3531 8.84062 14.3156 8.63437 14.2781 8.39062C14.2359 8.14687 14.1891 7.89844 14.1797 7.8375C14.1562 7.74375 14.1703 7.73437 14.325 7.73437C14.7281 7.73437 15.1078 7.50937 15.2812 7.16719C15.3703 6.99375 15.375 6.88125 15.375 4.38281C15.375 2.1375 15.3656 1.75312 15.3047 1.60312C15.2109 1.38281 15.0703 1.2375 14.8359 1.11094C14.6531 1.00781 14.6109 1.00781 12.1172 0.998436C10.725 0.993748 9.51562 1.00781 9.42656 1.03125ZM14.625 1.57031C14.9109 1.71562 14.9062 1.67812 14.9062 4.35937C14.9062 6.43594 14.8969 6.82031 14.8359 6.9375C14.7281 7.14375 14.5875 7.21875 14.3156 7.21875H14.0719L14.0437 6.99375C13.9219 6.13594 13.5984 5.80781 12.9375 5.87344C12.2344 5.94844 11.9391 6.25781 11.9484 6.9L11.9531 7.21875H10.7062H9.45937L9.32343 7.08281L9.1875 6.94687V4.37344C9.1875 2.01094 9.19687 1.79531 9.27187 1.70625C9.31406 1.65 9.39375 1.58437 9.44531 1.55625C9.51093 1.51875 10.3031 1.50469 12.0141 1.5C14.1375 1.5 14.5078 1.50937 14.625 1.57031ZM13.3547 6.45469C13.4437 6.52969 13.5047 6.82031 13.875 9.04687C14.1047 10.425 14.3156 11.6016 14.3391 11.6578C14.3766 11.7375 14.4281 11.7656 14.5312 11.7656C14.625 11.7656 14.6906 11.7328 14.7375 11.6578C14.7984 11.5641 14.7844 11.4516 14.6437 10.6172C14.5594 10.1016 14.4844 9.63281 14.4844 9.57656C14.4844 9.52031 14.5312 9.41719 14.5922 9.35156C14.6766 9.24844 14.7516 9.225 14.9812 9.20156C15.3328 9.16875 15.45 9.225 15.5109 9.45937C15.5391 9.55312 15.6375 10.0969 15.7312 10.6641C15.825 11.2312 15.9234 11.7234 15.9469 11.7516C16.0078 11.8266 16.2281 11.8312 16.3031 11.7562C16.3828 11.6766 16.3781 11.55 16.2375 10.7062C16.1672 10.2891 16.125 9.89531 16.1437 9.825C16.1812 9.67969 16.35 9.58594 16.65 9.54375C16.8937 9.50625 17.0297 9.55781 17.1141 9.70781C17.1516 9.78281 17.4797 11.5687 17.4844 11.7281C17.4844 11.7469 17.5359 11.7984 17.6016 11.8406C17.7094 11.9109 17.7281 11.9109 17.8359 11.8406C17.9812 11.7469 17.9812 11.6859 17.85 10.8703C17.7562 10.2656 17.7516 10.2234 17.8266 10.1109C17.9109 9.97969 18.1547 9.89062 18.4266 9.89062C18.7312 9.89062 18.7734 9.98437 18.9562 11.0859C19.2422 12.7828 19.3219 13.4953 19.3219 14.3906C19.3266 15.3984 19.275 15.675 18.8672 16.7344C18.4734 17.7703 18.3844 18.1922 18.4594 18.6422C18.4969 18.8672 18.4922 18.8859 18.4031 18.9094C18.2625 18.9422 14.1141 19.6312 13.95 19.65C13.8234 19.6641 13.8141 19.65 13.7531 19.4062C13.6594 19.0406 13.4344 18.6047 13.1812 18.2906C13.0594 18.1406 12.0844 17.0203 11.0156 15.8016C9.94687 14.5875 9.06562 13.5562 9.05625 13.5187C9.03281 13.4156 9.49218 13.2187 9.76406 13.2187C10.0687 13.2187 10.1578 13.2609 11.175 13.8984C12.2062 14.5453 12.2906 14.5781 12.5437 14.4562C12.8578 14.3016 12.8812 14.1984 12.9141 12.8906L12.9469 11.7422L12.6844 9.22031C12.4781 7.28437 12.4312 6.67969 12.4687 6.60469C12.5859 6.38906 13.1578 6.29531 13.3547 6.45469ZM19.4297 20.3812C19.5234 20.9578 19.5937 21.4359 19.5844 21.4406C19.5609 21.4687 13.6312 22.4578 13.6125 22.4437C13.5844 22.4109 13.2609 20.4234 13.275 20.3484C13.2844 20.2922 13.9031 20.175 16.2422 19.7812C17.8687 19.5047 19.2094 19.2937 19.2234 19.3078C19.2422 19.3219 19.3359 19.8047 19.4297 20.3812Z"/>
</mask>
<path d="M9.42656 1.03125C9.1875 1.0875 8.90156 1.3125 8.77968 1.54219L8.67187 1.74844V4.35C8.67187 6.89531 8.67187 6.96094 8.77031 7.15781C8.8875 7.39687 9.12656 7.60781 9.37031 7.68281C9.4875 7.71562 9.99375 7.73437 10.7859 7.73437H12.0234L12.225 9.68906C12.375 11.1422 12.4266 11.8453 12.4219 12.4031C12.4219 13.2516 12.375 14.0156 12.3281 14.0156C12.3141 14.0156 11.9109 13.7719 11.4328 13.4719C10.4344 12.8391 10.2797 12.7641 9.92812 12.7219C9.53437 12.675 9.00468 12.8531 8.68593 13.1391C8.56875 13.2469 8.50781 13.4859 8.55 13.6641C8.56875 13.7297 9.54843 14.8875 10.7297 16.2375C11.9109 17.5828 12.9328 18.7828 13.0031 18.9C13.125 19.1062 13.3125 19.6031 13.3125 19.7109C13.3125 19.7437 13.2422 19.7859 13.1531 19.8C12.9422 19.8422 12.75 20.0625 12.75 20.2641C12.75 20.3484 12.8437 20.9625 12.9562 21.6281C13.1344 22.6922 13.1719 22.8562 13.2656 22.9312C13.3219 22.9781 13.4109 23.0062 13.4719 22.9922C13.5234 22.9781 14.9625 22.7391 16.6641 22.4531C20.3578 21.8344 20.0062 21.9047 20.0859 21.7781C20.1469 21.6891 20.1281 21.5391 19.9406 20.4187C19.8281 19.725 19.7062 19.1156 19.6828 19.0594C19.5891 18.8812 19.4391 18.7969 19.2094 18.7969H18.9891L18.9562 18.5859C18.8953 18.1594 18.9609 17.8875 19.4672 16.5656C19.7625 15.7922 19.8047 15.5203 19.8047 14.3672C19.8047 13.2656 19.7859 13.0922 19.4953 11.2969C19.2797 9.96562 19.2562 9.87187 19.0641 9.67031C18.7734 9.36562 18.4031 9.31406 17.8359 9.50156C17.6672 9.55781 17.6016 9.5625 17.5875 9.52031C17.55 9.40312 17.3391 9.19687 17.1844 9.12187C16.9687 9.01875 16.5094 9.02344 16.2234 9.13594L15.9891 9.225L15.8719 9.04687C15.6375 8.69531 15.15 8.58281 14.625 8.76562C14.4844 8.8125 14.3625 8.85 14.3578 8.84531C14.3531 8.84062 14.3156 8.63437 14.2781 8.39062C14.2359 8.14687 14.1891 7.89844 14.1797 7.8375C14.1562 7.74375 14.1703 7.73437 14.325 7.73437C14.7281 7.73437 15.1078 7.50937 15.2812 7.16719C15.3703 6.99375 15.375 6.88125 15.375 4.38281C15.375 2.1375 15.3656 1.75312 15.3047 1.60312C15.2109 1.38281 15.0703 1.2375 14.8359 1.11094C14.6531 1.00781 14.6109 1.00781 12.1172 0.998436C10.725 0.993748 9.51562 1.00781 9.42656 1.03125ZM14.625 1.57031C14.9109 1.71562 14.9062 1.67812 14.9062 4.35937C14.9062 6.43594 14.8969 6.82031 14.8359 6.9375C14.7281 7.14375 14.5875 7.21875 14.3156 7.21875H14.0719L14.0437 6.99375C13.9219 6.13594 13.5984 5.80781 12.9375 5.87344C12.2344 5.94844 11.9391 6.25781 11.9484 6.9L11.9531 7.21875H10.7062H9.45937L9.32343 7.08281L9.1875 6.94687V4.37344C9.1875 2.01094 9.19687 1.79531 9.27187 1.70625C9.31406 1.65 9.39375 1.58437 9.44531 1.55625C9.51093 1.51875 10.3031 1.50469 12.0141 1.5C14.1375 1.5 14.5078 1.50937 14.625 1.57031ZM13.3547 6.45469C13.4437 6.52969 13.5047 6.82031 13.875 9.04687C14.1047 10.425 14.3156 11.6016 14.3391 11.6578C14.3766 11.7375 14.4281 11.7656 14.5312 11.7656C14.625 11.7656 14.6906 11.7328 14.7375 11.6578C14.7984 11.5641 14.7844 11.4516 14.6437 10.6172C14.5594 10.1016 14.4844 9.63281 14.4844 9.57656C14.4844 9.52031 14.5312 9.41719 14.5922 9.35156C14.6766 9.24844 14.7516 9.225 14.9812 9.20156C15.3328 9.16875 15.45 9.225 15.5109 9.45937C15.5391 9.55312 15.6375 10.0969 15.7312 10.6641C15.825 11.2312 15.9234 11.7234 15.9469 11.7516C16.0078 11.8266 16.2281 11.8312 16.3031 11.7562C16.3828 11.6766 16.3781 11.55 16.2375 10.7062C16.1672 10.2891 16.125 9.89531 16.1437 9.825C16.1812 9.67969 16.35 9.58594 16.65 9.54375C16.8937 9.50625 17.0297 9.55781 17.1141 9.70781C17.1516 9.78281 17.4797 11.5687 17.4844 11.7281C17.4844 11.7469 17.5359 11.7984 17.6016 11.8406C17.7094 11.9109 17.7281 11.9109 17.8359 11.8406C17.9812 11.7469 17.9812 11.6859 17.85 10.8703C17.7562 10.2656 17.7516 10.2234 17.8266 10.1109C17.9109 9.97969 18.1547 9.89062 18.4266 9.89062C18.7312 9.89062 18.7734 9.98437 18.9562 11.0859C19.2422 12.7828 19.3219 13.4953 19.3219 14.3906C19.3266 15.3984 19.275 15.675 18.8672 16.7344C18.4734 17.7703 18.3844 18.1922 18.4594 18.6422C18.4969 18.8672 18.4922 18.8859 18.4031 18.9094C18.2625 18.9422 14.1141 19.6312 13.95 19.65C13.8234 19.6641 13.8141 19.65 13.7531 19.4062C13.6594 19.0406 13.4344 18.6047 13.1812 18.2906C13.0594 18.1406 12.0844 17.0203 11.0156 15.8016C9.94687 14.5875 9.06562 13.5562 9.05625 13.5187C9.03281 13.4156 9.49218 13.2187 9.76406 13.2187C10.0687 13.2187 10.1578 13.2609 11.175 13.8984C12.2062 14.5453 12.2906 14.5781 12.5437 14.4562C12.8578 14.3016 12.8812 14.1984 12.9141 12.8906L12.9469 11.7422L12.6844 9.22031C12.4781 7.28437 12.4312 6.67969 12.4687 6.60469C12.5859 6.38906 13.1578 6.29531 13.3547 6.45469ZM19.4297 20.3812C19.5234 20.9578 19.5937 21.4359 19.5844 21.4406C19.5609 21.4687 13.6312 22.4578 13.6125 22.4437C13.5844 22.4109 13.2609 20.4234 13.275 20.3484C13.2844 20.2922 13.9031 20.175 16.2422 19.7812C17.8687 19.5047 19.2094 19.2937 19.2234 19.3078C19.2422 19.3219 19.3359 19.8047 19.4297 20.3812Z" fill="#797979"/>
<path d="M9.42656 1.03125C9.1875 1.0875 8.90156 1.3125 8.77968 1.54219L8.67187 1.74844V4.35C8.67187 6.89531 8.67187 6.96094 8.77031 7.15781C8.8875 7.39687 9.12656 7.60781 9.37031 7.68281C9.4875 7.71562 9.99375 7.73437 10.7859 7.73437H12.0234L12.225 9.68906C12.375 11.1422 12.4266 11.8453 12.4219 12.4031C12.4219 13.2516 12.375 14.0156 12.3281 14.0156C12.3141 14.0156 11.9109 13.7719 11.4328 13.4719C10.4344 12.8391 10.2797 12.7641 9.92812 12.7219C9.53437 12.675 9.00468 12.8531 8.68593 13.1391C8.56875 13.2469 8.50781 13.4859 8.55 13.6641C8.56875 13.7297 9.54843 14.8875 10.7297 16.2375C11.9109 17.5828 12.9328 18.7828 13.0031 18.9C13.125 19.1062 13.3125 19.6031 13.3125 19.7109C13.3125 19.7437 13.2422 19.7859 13.1531 19.8C12.9422 19.8422 12.75 20.0625 12.75 20.2641C12.75 20.3484 12.8437 20.9625 12.9562 21.6281C13.1344 22.6922 13.1719 22.8562 13.2656 22.9312C13.3219 22.9781 13.4109 23.0062 13.4719 22.9922C13.5234 22.9781 14.9625 22.7391 16.6641 22.4531C20.3578 21.8344 20.0062 21.9047 20.0859 21.7781C20.1469 21.6891 20.1281 21.5391 19.9406 20.4187C19.8281 19.725 19.7062 19.1156 19.6828 19.0594C19.5891 18.8812 19.4391 18.7969 19.2094 18.7969H18.9891L18.9562 18.5859C18.8953 18.1594 18.9609 17.8875 19.4672 16.5656C19.7625 15.7922 19.8047 15.5203 19.8047 14.3672C19.8047 13.2656 19.7859 13.0922 19.4953 11.2969C19.2797 9.96562 19.2562 9.87187 19.0641 9.67031C18.7734 9.36562 18.4031 9.31406 17.8359 9.50156C17.6672 9.55781 17.6016 9.5625 17.5875 9.52031C17.55 9.40312 17.3391 9.19687 17.1844 9.12187C16.9687 9.01875 16.5094 9.02344 16.2234 9.13594L15.9891 9.225L15.8719 9.04687C15.6375 8.69531 15.15 8.58281 14.625 8.76562C14.4844 8.8125 14.3625 8.85 14.3578 8.84531C14.3531 8.84062 14.3156 8.63437 14.2781 8.39062C14.2359 8.14687 14.1891 7.89844 14.1797 7.8375C14.1562 7.74375 14.1703 7.73437 14.325 7.73437C14.7281 7.73437 15.1078 7.50937 15.2812 7.16719C15.3703 6.99375 15.375 6.88125 15.375 4.38281C15.375 2.1375 15.3656 1.75312 15.3047 1.60312C15.2109 1.38281 15.0703 1.2375 14.8359 1.11094C14.6531 1.00781 14.6109 1.00781 12.1172 0.998436C10.725 0.993748 9.51562 1.00781 9.42656 1.03125ZM14.625 1.57031C14.9109 1.71562 14.9062 1.67812 14.9062 4.35937C14.9062 6.43594 14.8969 6.82031 14.8359 6.9375C14.7281 7.14375 14.5875 7.21875 14.3156 7.21875H14.0719L14.0437 6.99375C13.9219 6.13594 13.5984 5.80781 12.9375 5.87344C12.2344 5.94844 11.9391 6.25781 11.9484 6.9L11.9531 7.21875H10.7062H9.45937L9.32343 7.08281L9.1875 6.94687V4.37344C9.1875 2.01094 9.19687 1.79531 9.27187 1.70625C9.31406 1.65 9.39375 1.58437 9.44531 1.55625C9.51093 1.51875 10.3031 1.50469 12.0141 1.5C14.1375 1.5 14.5078 1.50937 14.625 1.57031ZM13.3547 6.45469C13.4437 6.52969 13.5047 6.82031 13.875 9.04687C14.1047 10.425 14.3156 11.6016 14.3391 11.6578C14.3766 11.7375 14.4281 11.7656 14.5312 11.7656C14.625 11.7656 14.6906 11.7328 14.7375 11.6578C14.7984 11.5641 14.7844 11.4516 14.6437 10.6172C14.5594 10.1016 14.4844 9.63281 14.4844 9.57656C14.4844 9.52031 14.5312 9.41719 14.5922 9.35156C14.6766 9.24844 14.7516 9.225 14.9812 9.20156C15.3328 9.16875 15.45 9.225 15.5109 9.45937C15.5391 9.55312 15.6375 10.0969 15.7312 10.6641C15.825 11.2312 15.9234 11.7234 15.9469 11.7516C16.0078 11.8266 16.2281 11.8312 16.3031 11.7562C16.3828 11.6766 16.3781 11.55 16.2375 10.7062C16.1672 10.2891 16.125 9.89531 16.1437 9.825C16.1812 9.67969 16.35 9.58594 16.65 9.54375C16.8937 9.50625 17.0297 9.55781 17.1141 9.70781C17.1516 9.78281 17.4797 11.5687 17.4844 11.7281C17.4844 11.7469 17.5359 11.7984 17.6016 11.8406C17.7094 11.9109 17.7281 11.9109 17.8359 11.8406C17.9812 11.7469 17.9812 11.6859 17.85 10.8703C17.7562 10.2656 17.7516 10.2234 17.8266 10.1109C17.9109 9.97969 18.1547 9.89062 18.4266 9.89062C18.7312 9.89062 18.7734 9.98437 18.9562 11.0859C19.2422 12.7828 19.3219 13.4953 19.3219 14.3906C19.3266 15.3984 19.275 15.675 18.8672 16.7344C18.4734 17.7703 18.3844 18.1922 18.4594 18.6422C18.4969 18.8672 18.4922 18.8859 18.4031 18.9094C18.2625 18.9422 14.1141 19.6312 13.95 19.65C13.8234 19.6641 13.8141 19.65 13.7531 19.4062C13.6594 19.0406 13.4344 18.6047 13.1812 18.2906C13.0594 18.1406 12.0844 17.0203 11.0156 15.8016C9.94687 14.5875 9.06562 13.5562 9.05625 13.5187C9.03281 13.4156 9.49218 13.2187 9.76406 13.2187C10.0687 13.2187 10.1578 13.2609 11.175 13.8984C12.2062 14.5453 12.2906 14.5781 12.5437 14.4562C12.8578 14.3016 12.8812 14.1984 12.9141 12.8906L12.9469 11.7422L12.6844 9.22031C12.4781 7.28437 12.4312 6.67969 12.4687 6.60469C12.5859 6.38906 13.1578 6.29531 13.3547 6.45469ZM19.4297 20.3812C19.5234 20.9578 19.5937 21.4359 19.5844 21.4406C19.5609 21.4687 13.6312 22.4578 13.6125 22.4437C13.5844 22.4109 13.2609 20.4234 13.275 20.3484C13.2844 20.2922 13.9031 20.175 16.2422 19.7812C17.8687 19.5047 19.2094 19.2937 19.2234 19.3078C19.2422 19.3219 19.3359 19.8047 19.4297 20.3812Z" stroke="#797979" stroke-width="0.2" mask="url(#path-1-outside-1_86_228)"/>
<path d="M12.6469 3.68906L11.7188 4.6125L11.2359 4.13437C10.8797 3.7875 10.7156 3.65625 10.6313 3.65625C10.5047 3.65625 10.3594 3.78281 10.3594 3.89531C10.3594 3.98438 11.6297 5.25 11.7188 5.25C11.7984 5.25 13.9688 3.09375 13.9688 3.01875C13.9688 2.91094 13.8141 2.76562 13.7016 2.76562C13.6031 2.76562 13.3828 2.95781 12.6469 3.68906Z" fill="#797979"/>
<path d="M17.3109 2.9578C17.1984 3.01405 17.0672 3.13124 17.0063 3.22499C16.8984 3.39843 16.8984 3.40312 16.8984 5.29687C16.8984 7.1953 16.8984 7.1953 17.0063 7.36874C17.0672 7.47187 17.1938 7.57968 17.3156 7.64062C17.5172 7.73437 17.5734 7.73905 19.3922 7.72499L21.2672 7.71093L21.4313 7.58437C21.75 7.34062 21.75 7.3453 21.75 5.28749C21.75 3.46874 21.7453 3.4453 21.6422 3.2578C21.5766 3.13593 21.4688 3.0328 21.3281 2.96249C21.1219 2.85937 21.0938 2.85937 19.3125 2.85937C17.5781 2.85937 17.4984 2.86405 17.3109 2.9578ZM21.1453 3.42187C21.2297 3.46874 21.2344 3.53905 21.2344 5.28749C21.2344 6.64218 21.2203 7.1203 21.1781 7.16249C21.1359 7.20468 20.6625 7.21874 19.3313 7.21874C17.7656 7.21874 17.5266 7.20937 17.4656 7.14374C17.4 7.0828 17.3906 6.84843 17.3906 5.29687C17.3906 3.7453 17.4 3.51093 17.4656 3.44999C17.5266 3.38437 17.7609 3.37499 19.2938 3.37499C20.4188 3.37499 21.0844 3.39374 21.1453 3.42187Z" fill="#797979"/>
<path d="M19.2422 4.42968C19.2188 4.43906 19.1391 4.45781 19.0688 4.47187C18.8953 4.50937 18.6094 4.76718 18.5344 4.95468C18.2531 5.61562 18.8766 6.3375 19.5563 6.13125C20.1281 5.9625 20.3578 5.26406 20.0063 4.76718C19.8703 4.57968 19.4203 4.37812 19.2422 4.42968ZM19.6078 5.06718C19.725 5.20781 19.7109 5.41875 19.5703 5.55468C19.3828 5.74218 19.1203 5.69531 18.9938 5.45156C18.9094 5.29218 18.9281 5.20781 19.0781 5.05312C19.2 4.93593 19.2469 4.91718 19.3734 4.94062C19.4578 4.95468 19.5609 5.01562 19.6078 5.06718Z" fill="#797979"/>
<path d="M3.05626 5.37656C2.99533 5.38594 2.8547 5.48438 2.7422 5.59219C2.58283 5.74688 2.53126 5.83125 2.50783 6C2.49376 6.11719 2.48439 6.98906 2.49376 7.94531C2.50783 9.86719 2.50783 9.8625 2.82189 10.0875L2.97658 10.1953H4.93126C6.8297 10.1953 6.88595 10.1906 7.01251 10.0969C7.08283 10.0453 7.18595 9.94219 7.23751 9.87188C7.33126 9.75 7.33595 9.67969 7.35001 7.85156C7.36408 6.03281 7.35939 5.94844 7.27033 5.77031C7.21876 5.67188 7.09689 5.53594 6.99845 5.47969L6.82033 5.36719L4.9922 5.3625C3.98908 5.35781 3.1172 5.3625 3.05626 5.37656ZM6.7547 5.90625C6.83908 5.95313 6.84376 6.02344 6.84376 7.77188C6.84376 9.12656 6.8297 9.60469 6.78751 9.64688C6.74533 9.68906 6.2672 9.70313 4.91251 9.70313C3.16408 9.70313 3.09376 9.69844 3.04689 9.61406C3.01876 9.55313 3.00001 8.89219 3.00001 7.77656C3.00001 6.21563 3.00939 6.02344 3.0797 5.94375C3.15001 5.86406 3.2672 5.85938 4.90783 5.85938C6.02814 5.85938 6.69376 5.87813 6.7547 5.90625Z" fill="#797979"/>
<path d="M4.57033 7.00312C4.11564 7.20468 3.93751 7.79062 4.19533 8.23124C4.47189 8.69999 5.07189 8.80312 5.48908 8.45156C5.9297 8.07656 5.86408 7.34531 5.36251 7.04999C5.1422 6.92343 4.80001 6.89999 4.57033 7.00312ZM5.07658 7.46249C5.32033 7.58906 5.3672 7.85156 5.1797 8.03906C4.98751 8.23593 4.70158 8.17968 4.59376 7.92656C4.52345 7.75312 4.60314 7.55624 4.78126 7.46718C4.92658 7.39218 4.95001 7.39218 5.07658 7.46249Z" fill="#797979"/>
</svg>
