<svg width="16" height="15" viewBox="0 0 16 15" fill="none" xmlns="http://www.w3.org/2000/svg">
<g clip-path="url(#clip0_111_292)">
<path d="M8.56824 0.288278C8.59432 0.288133 8.6204 0.287987 8.64727 0.287838C8.73367 0.287409 8.82007 0.28721 8.90648 0.287048C8.96663 0.28688 9.02678 0.286711 9.08692 0.286542C9.21318 0.286234 9.33943 0.286063 9.46568 0.285961C9.62698 0.285801 9.78826 0.285098 9.94955 0.284263C10.0739 0.283715 10.1982 0.283564 10.3226 0.283519C10.382 0.283431 10.4414 0.283197 10.5009 0.282811C10.5843 0.282308 10.6678 0.282367 10.7512 0.282556C10.7755 0.282286 10.7997 0.282016 10.8247 0.281738C11.1482 0.28402 11.3837 0.398714 11.6153 0.603363C11.8325 0.819712 11.8938 1.05878 11.8898 1.35054C11.8771 1.62349 11.7653 1.85479 11.5625 2.05081C11.4045 2.17283 11.2999 2.22368 11.0937 2.25589C11.104 2.49759 11.1144 2.73929 11.125 2.98831C11.2864 3.0291 11.2864 3.0291 11.4512 3.07071C12.4306 3.33215 13.3157 3.80588 14.0475 4.46993C14.0956 4.5134 14.1442 4.55621 14.1929 4.59907C15.2221 5.51953 15.9621 6.95426 16.0055 8.29595C16.0063 8.3394 16.007 8.38286 16.0074 8.42631C16.0077 8.44993 16.008 8.47355 16.0084 8.49788C16.0209 9.7082 15.8274 11.1462 14.9375 12.0996C14.841 12.1534 14.7849 12.1583 14.6719 12.1564C14.5361 12.1223 14.4859 12.0911 14.4062 11.9824C14.366 11.7781 14.4362 11.6363 14.5488 11.4661C14.5778 11.4197 14.6066 11.3732 14.6354 11.3267C14.6496 11.3038 14.6639 11.281 14.6785 11.2574C15.1315 10.5138 15.327 9.64807 15.3223 8.79825C15.3222 8.77649 15.3221 8.75473 15.322 8.73232C15.316 7.51359 14.8658 6.28324 14 5.36136C13.9768 5.33643 13.9537 5.31151 13.9298 5.28583C13.8605 5.21239 13.79 5.14015 13.7187 5.06839C13.6973 5.04675 13.676 5.02511 13.6539 5.00281C12.6308 4.00468 11.1411 3.50843 9.68749 3.47537C8.22842 3.50989 6.88724 3.99686 5.81249 4.9219C5.79639 4.93567 5.78029 4.94944 5.7637 4.96362C4.78154 5.81375 4.11423 7.13178 4.05574 8.3874C4.03781 8.8836 4.03093 9.38817 4.15624 9.87308C4.16244 9.89816 4.16865 9.92325 4.17505 9.94909C4.40762 10.8712 4.86531 11.7048 5.56249 12.3926C5.60046 12.4339 5.63824 12.4754 5.67577 12.5171C5.78474 12.6339 5.903 12.7341 6.03124 12.8321C6.06084 12.8547 6.09045 12.8774 6.12096 12.9007C7.29977 13.7851 8.81514 14.1808 10.3127 14.0478C11.1974 13.9534 12.0168 13.6627 12.7766 13.2327C12.8916 13.1753 12.9432 13.1688 13.0666 13.1915C13.1783 13.2325 13.2223 13.2937 13.2812 13.3887C13.3077 13.5012 13.3012 13.5921 13.2363 13.6929C13.1241 13.8003 12.9969 13.8669 12.8574 13.9398C12.8282 13.9552 12.7991 13.9706 12.769 13.9864C12.2171 14.272 11.6258 14.4727 11.0098 14.5972C10.9879 14.6016 10.9661 14.6061 10.9436 14.6106C10.5344 14.688 10.1257 14.7192 9.70897 14.718C9.6862 14.718 9.66344 14.718 9.63998 14.718C7.9132 14.7125 6.32515 14.0447 5.11122 12.9071C4.66426 12.4797 3.78124 11.5373 3.78124 10.8985C3.7383 10.8988 3.7383 10.8988 3.6945 10.8991C3.4246 10.9008 3.1547 10.9022 2.88479 10.903C2.74604 10.9035 2.60728 10.9041 2.46853 10.9051C2.3346 10.9061 2.20067 10.9066 2.06673 10.9068C2.01566 10.907 1.96459 10.9073 1.91352 10.9078C1.84193 10.9084 1.77035 10.9085 1.69875 10.9084C1.65802 10.9086 1.61729 10.9088 1.57532 10.909C1.46063 10.8977 1.40321 10.876 1.31249 10.8106C1.22877 10.6928 1.22823 10.5974 1.24999 10.459C1.30605 10.3749 1.34319 10.3274 1.43749 10.2832C1.50482 10.2805 1.57225 10.2798 1.63965 10.2799C1.67075 10.2799 1.67075 10.2799 1.70248 10.2799C1.77113 10.2799 1.83978 10.2801 1.90843 10.2804C1.95599 10.2804 2.00354 10.2805 2.05109 10.2805C2.17635 10.2806 2.3016 10.2809 2.42685 10.2812C2.55462 10.2815 2.68239 10.2817 2.81017 10.2818C3.06094 10.2821 3.31171 10.2826 3.56249 10.2832C3.55606 10.2598 3.54964 10.2363 3.54302 10.2121C3.53459 10.1809 3.52615 10.1498 3.51746 10.1177C3.50911 10.087 3.50075 10.0562 3.49214 10.0246C3.45769 9.88782 3.43593 9.75039 3.416 9.61123C3.41195 9.5847 3.4079 9.55817 3.40373 9.53084C3.3857 9.40906 3.37419 9.29301 3.37499 9.16995C3.35615 9.17028 3.33731 9.1706 3.3179 9.17094C3.12172 9.17418 2.92555 9.17639 2.72935 9.178C2.65614 9.17873 2.58294 9.17973 2.50974 9.181C2.40447 9.18278 2.29924 9.18361 2.19396 9.18426C2.14492 9.18539 2.14492 9.18539 2.0949 9.18655C1.86741 9.18663 1.86741 9.18663 1.74502 9.10039C1.68286 9.01728 1.66628 8.9774 1.66795 8.87698C1.66755 8.85281 1.66715 8.82864 1.66673 8.80374C1.69843 8.69187 1.74475 8.65376 1.84374 8.58401C1.9606 8.5636 2.07543 8.56697 2.19396 8.56971C2.24461 8.57002 2.24461 8.57002 2.29628 8.57034C2.40392 8.57115 2.5115 8.57299 2.61913 8.57486C2.69218 8.57559 2.76524 8.57626 2.8383 8.57686C3.01722 8.57847 3.1961 8.58092 3.37499 8.58401C3.37476 8.56054 3.37454 8.53706 3.3743 8.51287C3.37413 8.48172 3.37395 8.45056 3.37377 8.41847C3.37355 8.38774 3.37332 8.35701 3.37309 8.32535C3.37594 8.18557 3.39671 8.04991 3.41991 7.91202C3.42622 7.87222 3.42622 7.87222 3.43266 7.83162C3.45211 7.7106 3.47415 7.59071 3.49999 7.47073C3.45883 7.47099 3.41768 7.47125 3.37528 7.47152C2.98765 7.4739 2.60003 7.47565 2.21239 7.4768C2.0131 7.47742 1.81381 7.47825 1.61453 7.47957C1.42224 7.48085 1.22996 7.48155 1.03766 7.48185C0.964263 7.48207 0.890865 7.48249 0.817468 7.48312C0.714738 7.48397 0.612034 7.48409 0.509301 7.48404C0.478889 7.48446 0.448476 7.48488 0.417142 7.48531C0.282267 7.48454 0.208078 7.48266 0.0912008 7.41497C-0.00931103 7.31201 -0.0121756 7.23302 -0.0112448 7.09754C0.00656596 6.99246 0.0688063 6.94724 0.156236 6.8848C0.230756 6.84986 0.275961 6.85189 0.359125 6.85197C0.388661 6.85193 0.418196 6.85189 0.448627 6.85185C0.497381 6.85201 0.497381 6.85201 0.54712 6.85217C0.581267 6.85217 0.615413 6.85216 0.650595 6.85216C0.763885 6.85218 0.877174 6.85241 0.990464 6.85264C1.06885 6.85269 1.14723 6.85273 1.22561 6.85276C1.4111 6.85286 1.59659 6.85309 1.78208 6.85339C2.01393 6.85375 2.24579 6.85391 2.47765 6.85407C2.89134 6.85438 3.30504 6.85488 3.71874 6.8555C3.72576 6.81392 3.72576 6.81392 3.73292 6.7715C3.74756 6.69275 3.76565 6.63288 3.80003 6.56058C3.81023 6.53908 3.82042 6.51757 3.83092 6.49541C3.84159 6.47345 3.85227 6.45149 3.86327 6.42886C3.87322 6.40769 3.88317 6.38653 3.89342 6.36472C3.99081 6.16149 4.10454 5.96675 4.21874 5.77151C4.1854 5.77181 4.1854 5.77181 4.1514 5.77211C3.9413 5.77387 3.73121 5.77521 3.52111 5.77607C3.41311 5.77653 3.30512 5.77714 3.19712 5.77814C3.07278 5.77929 2.94843 5.77971 2.82408 5.7801C2.76631 5.78078 2.76631 5.78078 2.70736 5.78147C2.51112 5.78151 2.35805 5.77931 2.18749 5.68362C2.10377 5.56589 2.10323 5.47045 2.12499 5.33206C2.18105 5.24797 2.21819 5.20048 2.31249 5.15628C2.38601 5.15439 2.45959 5.15446 2.53314 5.15538C2.58024 5.15585 2.62735 5.15631 2.67446 5.15676C2.6995 5.15704 2.72454 5.15732 2.75034 5.15761C2.9109 5.15912 3.07147 5.15895 3.23203 5.15911C3.37304 5.15935 3.514 5.16016 3.65499 5.1622C3.79145 5.16414 3.92783 5.1645 4.0643 5.16381C4.11615 5.16382 4.16799 5.16441 4.21982 5.16559C4.51853 5.17663 4.51853 5.17663 4.77909 5.05746C4.85014 4.97621 4.90908 4.89351 4.96874 4.80472C5.83878 3.88107 6.98773 3.2937 8.24999 2.98831C8.24999 2.75628 8.24999 2.52425 8.24999 2.28519C8.19327 2.26162 8.13655 2.23805 8.07811 2.21378C7.79329 2.07932 7.63037 1.90175 7.52159 1.62189C7.43768 1.35344 7.454 1.09309 7.58202 0.838653C7.79658 0.476863 8.12595 0.288866 8.56824 0.288278ZM8.19335 1.08035C8.13396 1.17999 8.11511 1.26296 8.13536 1.37664C8.17939 1.51804 8.24736 1.59564 8.38179 1.66952C8.58076 1.73755 8.80374 1.71874 9.01293 1.71664C9.06607 1.71659 9.11921 1.7166 9.17235 1.71665C9.28336 1.7166 9.39435 1.71605 9.50536 1.71513C9.64736 1.71396 9.78933 1.71384 9.93133 1.71406C10.0409 1.71415 10.1505 1.71379 10.2601 1.71329C10.3125 1.71309 10.3648 1.71299 10.4172 1.71302C10.4904 1.71297 10.5636 1.71234 10.6368 1.71155C10.6689 1.71168 10.6689 1.71168 10.7017 1.71181C10.8928 1.70866 11.0127 1.65395 11.1523 1.53445C11.2373 1.40798 11.2488 1.3176 11.2187 1.17191C11.1484 1.03994 11.0785 0.971498 10.9375 0.908233C10.8536 0.899759 10.777 0.895905 10.6932 0.896396C10.6571 0.896094 10.6571 0.896094 10.6202 0.895787C10.5408 0.895252 10.4614 0.895364 10.3819 0.89553C10.3266 0.895397 10.2712 0.895241 10.2158 0.895065C10.0998 0.894803 9.98386 0.894874 9.86788 0.895166C9.71947 0.895502 9.57108 0.89491 9.42267 0.894055C9.30833 0.893517 9.19399 0.893525 9.07965 0.893693C9.02494 0.893697 8.97023 0.89352 8.91552 0.893157C8.83893 0.892719 8.76238 0.893033 8.68578 0.893535C8.6521 0.89311 8.6521 0.89311 8.61773 0.892677C8.43251 0.89521 8.32017 0.957359 8.19335 1.08035ZM8.93749 2.31448C8.93749 2.50784 8.93749 2.7012 8.93749 2.90042C9.00967 2.89559 9.08186 2.89075 9.15624 2.88577C9.58555 2.85966 10.0088 2.87171 10.4375 2.90042C10.4375 2.70706 10.4375 2.5137 10.4375 2.31448C9.94249 2.31448 9.44749 2.31448 8.93749 2.31448Z" fill="black"/>
<path d="M12.8438 5.30273C12.8696 5.32343 12.8955 5.34413 12.9221 5.36545C13.9462 6.20211 14.4656 7.35803 14.5625 8.61328C14.5699 8.72193 14.5695 8.82688 14.5625 8.93555C14.5606 8.96681 14.5606 8.96681 14.5586 8.9987C14.4841 10.112 14.0402 11.1128 13.2188 11.9238C13.2039 11.9387 13.1891 11.9535 13.1739 11.9688C12.9295 12.2124 12.675 12.4167 12.375 12.5977C12.3549 12.6099 12.3347 12.6222 12.314 12.6348C11.5286 13.1075 10.6363 13.3436 9.70509 13.3411C9.68184 13.341 9.65858 13.341 9.63463 13.341C8.29204 13.3361 7.08917 12.8175 6.14605 11.9285C5.25953 11.068 4.79973 9.90728 4.81049 8.71551C4.84581 7.44134 5.40225 6.32213 6.36378 5.43137C8.12858 3.87362 11.0158 3.79722 12.8438 5.30273ZM6.49188 6.19795C5.80565 6.93715 5.41442 7.95465 5.46876 8.93555C5.54533 9.94395 5.94605 10.8064 6.68751 11.543C6.70854 11.5646 6.72956 11.5862 6.75123 11.6084C7.27254 12.1246 7.9646 12.4405 8.68751 12.627C8.70913 12.6326 8.73074 12.6382 8.75302 12.644C9.35286 12.7912 10.0905 12.7823 10.6875 12.627C10.7126 12.6205 10.7376 12.614 10.7634 12.6074C11.4871 12.4141 12.0787 12.0849 12.625 11.6016C12.6481 11.5818 12.6711 11.5621 12.6948 11.5418C13.4476 10.8737 13.8588 9.8957 13.9063 8.93555C13.9075 8.91338 13.9088 8.89121 13.9102 8.86837C13.9415 7.80284 13.4746 6.79776 12.7076 6.02697C11.9388 5.27438 10.8723 4.85205 9.7654 4.82363C8.50561 4.81345 7.33287 5.3254 6.49188 6.19795Z" fill="black"/>
<path d="M12 6.41599C12.1002 6.47165 12.1687 6.51369 12.2094 6.61924C12.2358 6.76008 12.2106 6.82326 12.125 6.94333C12.0769 6.99078 12.0269 7.03662 11.9757 7.08115C11.9451 7.10794 11.9146 7.13475 11.8841 7.16156C11.868 7.17557 11.8519 7.18959 11.8354 7.20403C11.7497 7.27919 11.6652 7.35556 11.5805 7.43177C11.4731 7.52841 11.3654 7.62462 11.256 7.71924C11.1672 7.79606 11.0801 7.87422 10.9937 7.9534C10.9608 7.98311 10.9273 8.01232 10.8933 8.04097C10.7042 8.19662 10.7042 8.19662 10.6184 8.41035C10.6219 8.52043 10.641 8.6248 10.6657 8.73225C10.7071 8.95114 10.6427 9.14604 10.5098 9.32737C10.3224 9.53597 10.0962 9.67999 9.8042 9.70651C9.48443 9.71657 9.25642 9.66384 9.00586 9.47568C8.80579 9.29675 8.70309 9.06992 8.68453 8.81226C8.6875 8.73044 8.6875 8.73044 8.71286 8.6445C8.74323 8.54006 8.7576 8.45794 8.75 8.34958C8.66039 8.2119 8.54017 8.11228 8.41211 8.00718C8.37886 7.97846 8.34572 7.94965 8.31268 7.92072C8.25244 7.86801 8.19168 7.81625 8.13015 7.76483C8.03849 7.68383 8.02489 7.63502 8.01953 7.52012C8.02117 7.41379 8.02855 7.38647 8.0957 7.2949C8.20623 7.22435 8.27268 7.20701 8.40625 7.20701C8.55163 7.26258 8.64118 7.33149 8.74573 7.44012C8.78733 7.48173 8.78733 7.48173 8.82977 7.52418C8.87318 7.56796 8.91626 7.61192 8.9587 7.65652C9.11365 7.83434 9.11365 7.83434 9.32805 7.91592C9.39997 7.90033 9.46338 7.87845 9.53125 7.85154C9.61719 7.84375 9.61719 7.84375 9.6875 7.84421C9.7107 7.84406 9.73391 7.84391 9.75781 7.84375C9.84375 7.85154 9.84375 7.85154 9.90108 7.87588C9.98289 7.90621 10.0368 7.91659 10.125 7.91013C10.2636 7.82683 10.371 7.71558 10.483 7.60389C10.5166 7.57168 10.5502 7.53956 10.5839 7.5075C10.6723 7.42305 10.7597 7.3377 10.8469 7.2521C10.9529 7.1483 11.0599 7.04548 11.167 6.94263C11.2503 6.8626 11.3334 6.7824 11.4158 6.7016C11.4459 6.67238 11.4759 6.64316 11.506 6.61394C11.532 6.58839 11.5581 6.56285 11.585 6.53652C11.7174 6.42147 11.8188 6.39549 12 6.41599ZM9.41406 8.59494C9.35895 8.66211 9.34788 8.70395 9.34375 8.78904C9.37946 8.89123 9.41466 8.96953 9.49023 9.05088C9.59763 9.09714 9.69793 9.1008 9.8125 9.08201C9.9297 9.02229 9.9621 8.97972 10.0137 8.86411C10.0327 8.75136 10.0301 8.71004 9.96875 8.61326C9.89605 8.52238 9.85452 8.49882 9.73633 8.4686C9.58737 8.46615 9.52702 8.51174 9.41406 8.59494Z" fill="black"/>
<path d="M9.84375 5.36134C9.94122 5.43683 9.99119 5.48305 10.0313 5.59572C10.0619 6.00941 10.0619 6.00941 9.9375 6.15236C9.81304 6.22416 9.74869 6.24453 9.60352 6.22377C9.49271 6.17869 9.44588 6.15534 9.375 6.06447C9.35564 5.97204 9.35613 5.88191 9.35742 5.78798C9.35668 5.76319 9.35593 5.73839 9.35516 5.71285C9.35549 5.58225 9.36077 5.52507 9.44836 5.41891C9.58761 5.3222 9.67791 5.32381 9.84375 5.36134Z" fill="black"/>
<path d="M9.8125 11.3379C9.90031 11.3904 9.95342 11.4263 10 11.5137C10.0056 11.6001 10.0087 11.6853 10.0098 11.7718C10.0107 11.7955 10.0116 11.8192 10.0125 11.8435C10.0139 11.9638 10.0107 12.0251 9.9408 12.1292C9.84037 12.2181 9.7669 12.2285 9.6283 12.2271C9.50946 12.2085 9.45622 12.152 9.375 12.0703C9.33822 11.9745 9.33857 11.8802 9.33789 11.7792C9.33745 11.7493 9.337 11.7194 9.33655 11.6886C9.34711 11.5609 9.38033 11.4815 9.47266 11.3873C9.58954 11.323 9.67994 11.3123 9.8125 11.3379Z" fill="black"/>
<path d="M6.47851 8.45944C6.51964 8.45869 6.56077 8.45793 6.60315 8.45715C6.75539 8.46981 6.83503 8.51095 6.93359 8.61874C6.97396 8.71335 6.97431 8.77527 6.96594 8.87509C6.92015 8.97236 6.84727 9.03167 6.75 9.082C6.65977 9.10148 6.57463 9.10127 6.48242 9.09848C6.45924 9.0988 6.43605 9.09912 6.41217 9.09945C6.25738 9.09751 6.1746 9.07274 6.0625 8.96481C6.00824 8.86308 6.01244 8.75353 6.03125 8.64255C6.16806 8.48053 6.26823 8.46095 6.47851 8.45944Z" fill="black"/>
<path d="M13.1914 8.50525C13.2813 8.55468 13.2813 8.55468 13.3438 8.64257C13.3669 8.77713 13.3628 8.87767 13.2852 8.99414C13.1623 9.10256 13.042 9.0904 12.8809 9.09301C12.843 9.09466 12.843 9.09466 12.8044 9.09633C12.6659 9.09825 12.6117 9.09539 12.4997 9.01176C12.4089 8.90044 12.3919 8.84177 12.4063 8.70117C12.46 8.6042 12.4972 8.54155 12.6024 8.49163C12.7878 8.43751 13.0098 8.43727 13.1914 8.50525Z" fill="black"/>
<path d="M14.0312 12.4512C14.2043 12.5413 14.2043 12.5413 14.25 12.6269C14.2631 12.7166 14.2652 12.8012 14.25 12.8906C14.1818 12.9713 14.129 13.0206 14.0312 13.0664C13.8932 13.0813 13.8279 13.0749 13.707 13.0078C13.6183 12.9127 13.5953 12.8647 13.5884 12.7419C13.5992 12.6283 13.6607 12.5651 13.7422 12.4859C13.8452 12.435 13.9163 12.4381 14.0312 12.4512Z" fill="black"/>
<path d="M0.500029 10.3125C0.587451 10.3765 0.617229 10.4202 0.637725 10.5222C0.646951 10.6519 0.639116 10.706 0.55081 10.8105C0.420539 10.9036 0.352616 10.9051 0.193755 10.8854C0.125029 10.8691 0.125029 10.8691 0.0449511 10.8105C-0.0163954 10.6905 -0.0254957 10.5898 2.92165e-05 10.459C0.124645 10.2656 0.28167 10.26 0.500029 10.3125Z" fill="black"/>
</g>
<defs>
<clipPath id="clip0_111_292">
<rect width="16" height="15" fill="white"/>
</clipPath>
</defs>
</svg>
