<svg width="26" height="26" viewBox="0 0 26 26" fill="none" xmlns="http://www.w3.org/2000/svg">
<g clip-path="url(#clip0_73_10)">
<path d="M12.9714 6.08103C13.008 6.08098 13.0446 6.08098 13.0822 6.08093C13.6126 6.08175 14.1099 6.10373 14.625 6.24607C14.6936 6.26298 14.7622 6.27984 14.8309 6.29665C15.8658 6.5633 16.7556 7.08711 17.5703 7.76951C17.6064 7.79932 17.6425 7.82908 17.6796 7.85975C17.9221 8.06501 18.1335 8.28337 18.332 8.53123C18.3524 8.55662 18.3727 8.58196 18.3937 8.60811C19.3998 9.87805 19.9176 11.3519 19.9189 12.9714C19.919 13.008 19.919 13.0446 19.9191 13.0822C19.9183 13.6126 19.8962 14.1099 19.7539 14.625C19.737 14.6936 19.7202 14.7622 19.7033 14.8309C19.4367 15.8658 18.9128 16.7556 18.2304 17.5703C18.2007 17.6063 18.1709 17.6425 18.1402 17.6796C17.935 17.9221 17.7166 18.1334 17.4687 18.332C17.4434 18.3524 17.418 18.3727 17.3918 18.3937C16.122 19.3998 14.6481 19.9176 13.0286 19.9189C12.992 19.919 12.9554 19.919 12.9178 19.919C12.3874 19.9182 11.8901 19.8962 11.375 19.7539C11.3064 19.737 11.2378 19.7201 11.1691 19.7033C10.1342 19.4367 9.2444 18.9128 8.42967 18.2304C8.37558 18.1858 8.37559 18.1858 8.32039 18.1402C8.07791 17.935 7.86655 17.7166 7.66795 17.4687C7.64764 17.4433 7.62727 17.418 7.6063 17.3918C6.60017 16.1219 6.08241 14.6481 6.08103 13.0285C6.08103 12.992 6.08098 12.9554 6.08093 12.9178C6.08175 12.3874 6.10378 11.8901 6.24607 11.375C6.26298 11.3064 6.27984 11.2377 6.2967 11.1691C6.56335 10.1342 7.08716 9.2444 7.76951 8.42967C7.79932 8.39361 7.82913 8.35751 7.8598 8.32039C8.06501 8.07791 8.28342 7.86655 8.53123 7.66795C8.56932 7.63743 8.56932 7.63743 8.60816 7.60625C9.87805 6.60017 11.3519 6.08241 12.9714 6.08103ZM9.39451 9.39451C9.36201 9.42437 9.32946 9.45423 9.29594 9.48495C8.39818 10.3366 7.93902 11.6266 7.8731 12.8381C7.84086 14.2756 8.41677 15.5709 9.39451 16.6054C9.42437 16.638 9.45423 16.6705 9.485 16.704C10.3366 17.6018 11.6267 18.0609 12.8381 18.1269C14.2757 18.1592 15.5709 17.5832 16.6054 16.6054C16.638 16.5756 16.6705 16.5457 16.7041 16.515C17.6018 15.6634 18.061 14.3734 18.1269 13.1619C18.1592 11.7244 17.5832 10.4291 16.6054 9.39451C16.5756 9.36196 16.5458 9.32946 16.515 9.29594C15.6635 8.39813 14.3734 7.93902 13.1619 7.87305C11.7244 7.84081 10.4291 8.41677 9.39451 9.39451Z" fill="#797979"/>
<path d="M19.7698 18.8779C19.8167 18.8766 19.8637 18.8753 19.912 18.874C20.3088 18.9191 20.5521 19.2073 20.8209 19.475C20.8641 19.5177 20.9072 19.5603 20.9517 19.6042C21.0427 19.6945 21.1335 19.7849 21.224 19.8755C21.3623 20.0134 21.5017 20.1501 21.6413 20.2867C21.7297 20.3747 21.8181 20.4628 21.9063 20.5509C21.9479 20.5914 21.9895 20.6319 22.0323 20.6736C22.3108 20.9555 22.4899 21.218 22.4995 21.6237C22.4334 21.9261 22.3393 22.1504 22.0899 22.3437C21.8163 22.4996 21.5577 22.5258 21.2544 22.4445C21.1179 22.3918 21.0395 22.3351 20.9321 22.2368C20.8971 22.205 20.8621 22.1731 20.826 22.1403C20.6501 21.9743 20.4765 21.8061 20.305 21.6356C20.2674 21.5984 20.23 21.5612 20.1913 21.5228C20.1128 21.4448 20.0344 21.3667 19.956 21.2885C19.836 21.169 19.7155 21.0501 19.595 20.9312C19.5185 20.855 19.442 20.7788 19.3655 20.7025C19.3296 20.6672 19.2935 20.6318 19.2565 20.5954C19.0022 20.3399 18.8763 20.1525 18.8748 19.7824C18.8809 19.5121 18.9181 19.3205 19.1156 19.1225C19.3299 18.9343 19.4904 18.8825 19.7698 18.8779Z" fill="#797979"/>
<path d="M6.67139 18.9477C6.87817 19.0954 7.02747 19.2542 7.10938 19.5C7.11669 19.5897 7.1206 19.6798 7.12208 19.7698C7.1234 19.8167 7.12472 19.8636 7.12604 19.912C7.08094 20.3087 6.79271 20.5521 6.52499 20.8209C6.48233 20.8641 6.43968 20.9072 6.39575 20.9517C6.30551 21.0427 6.21512 21.1335 6.12448 21.224C5.98661 21.3623 5.8499 21.5017 5.7133 21.6412C5.6253 21.7297 5.53724 21.8181 5.44909 21.9064C5.40856 21.9479 5.36809 21.9895 5.3264 22.0324C5.04451 22.3108 4.78202 22.4899 4.37633 22.4994C4.07393 22.4333 3.84958 22.3393 3.65626 22.0898C3.50036 21.8163 3.4742 21.5577 3.55545 21.2543C3.60822 21.1178 3.66494 21.0395 3.76315 20.9321C3.81093 20.8796 3.81093 20.8796 3.85974 20.826C4.02574 20.6501 4.19388 20.4765 4.3644 20.305C4.40162 20.2675 4.43885 20.2299 4.47718 20.1913C4.55524 20.1128 4.63334 20.0344 4.71149 19.956C4.83098 19.836 4.94986 19.7155 5.06879 19.595C5.14501 19.5185 5.22123 19.442 5.29751 19.3655C5.33285 19.3295 5.36819 19.2936 5.4046 19.2565C5.77388 18.8889 6.1616 18.7778 6.67139 18.9477Z" fill="#797979"/>
<path d="M22.6831 12.0777C22.7701 12.077 22.7701 12.077 22.8588 12.0763C22.9212 12.0761 22.9837 12.0758 23.0479 12.0756C23.1445 12.0752 23.1445 12.0752 23.243 12.0747C23.3791 12.0742 23.5153 12.0739 23.6515 12.0737C23.8255 12.0734 23.9993 12.0722 24.1733 12.0708C24.3398 12.0696 24.5064 12.0695 24.6729 12.0693C24.7352 12.0687 24.7974 12.068 24.8615 12.0674C25.2481 12.0683 25.4869 12.0986 25.7842 12.3621C26.0091 12.6181 26.0224 12.8184 26.0159 13.1533C25.9923 13.3781 25.9376 13.4825 25.7969 13.6601C25.5491 13.8523 25.3677 13.9201 25.0578 13.9222C25 13.9227 24.9422 13.9232 24.8827 13.9237C24.7889 13.924 24.7889 13.924 24.6932 13.9244C24.5967 13.9248 24.5967 13.9248 24.4983 13.9253C24.362 13.9257 24.2258 13.9261 24.0895 13.9262C23.9156 13.9265 23.7418 13.9278 23.5679 13.9292C23.4013 13.9304 23.2348 13.9304 23.0682 13.9307C23.0061 13.9314 22.9439 13.932 22.88 13.9326C22.5156 13.9317 22.2246 13.9243 21.9395 13.6744C21.9158 13.6446 21.8921 13.6147 21.8677 13.584C21.8432 13.5541 21.8187 13.5243 21.7935 13.4935C21.6409 13.2683 21.662 13.0067 21.6836 12.7461C21.7729 12.473 21.9547 12.293 22.1914 12.1367C22.3566 12.0836 22.5103 12.0789 22.6831 12.0777Z" fill="#797979"/>
<path d="M22.094 3.66457C22.3011 3.82067 22.4132 3.99378 22.48 4.24398C22.5144 4.50733 22.4813 4.75524 22.3229 4.97381C22.2945 5.00483 22.2661 5.03591 22.2368 5.06791C22.205 5.10289 22.1731 5.13788 22.1403 5.17394C21.9743 5.34989 21.8061 5.52341 21.6356 5.695C21.5984 5.73253 21.5612 5.77006 21.5228 5.8087C21.4448 5.88716 21.3667 5.96562 21.2885 6.04397C21.169 6.16397 21.0501 6.28447 20.9312 6.40498C20.855 6.4815 20.7788 6.55803 20.7025 6.63446C20.6672 6.67046 20.6318 6.70641 20.5954 6.74348C20.3399 6.99785 20.1525 7.12363 19.7824 7.12521C19.5121 7.11906 19.3205 7.08184 19.1225 6.8844C18.9343 6.6701 18.8825 6.50958 18.8779 6.23019C18.8759 6.1598 18.8759 6.1598 18.874 6.088C18.9191 5.69124 19.2073 5.4479 19.475 5.17907C19.5177 5.1359 19.5603 5.09274 19.6042 5.04825C19.6945 4.9573 19.7849 4.86651 19.8755 4.77591C20.0134 4.63769 20.1501 4.49824 20.2867 4.35874C20.3747 4.27028 20.4628 4.18192 20.5509 4.09362C20.5914 4.05203 20.6319 4.01049 20.6736 3.96763C21.0892 3.55696 21.5476 3.35912 22.094 3.66457Z" fill="#797979"/>
<path d="M4.9738 3.67709C5.00488 3.70548 5.03591 3.73386 5.06795 3.76311C5.12041 3.81095 5.12041 3.81095 5.17398 3.8597C5.34994 4.0257 5.52346 4.19384 5.69505 4.36442C5.73252 4.40164 5.77005 4.43886 5.80869 4.4772C5.8872 4.5552 5.96561 4.6333 6.04396 4.71145C6.16396 4.83094 6.28446 4.94987 6.40497 5.0688C6.48149 5.14497 6.55802 5.22125 6.6345 5.29752C6.67045 5.33286 6.70641 5.36821 6.74348 5.40462C6.99784 5.6601 7.12367 5.84748 7.12525 6.21752C7.11905 6.48783 7.08183 6.67953 6.88444 6.87748C6.67015 7.06567 6.50958 7.11742 6.23023 7.12204C6.18331 7.12336 6.13633 7.12468 6.08799 7.12605C5.69124 7.08091 5.44794 6.79272 5.17911 6.52501C5.13594 6.48235 5.09273 6.43964 5.0483 6.39572C4.9573 6.30553 4.86655 6.21509 4.77596 6.12449C4.63768 5.98657 4.49828 5.84992 4.35874 5.71327C4.27033 5.62526 4.18192 5.53721 4.09366 5.44905C4.05207 5.40858 4.01048 5.36811 3.96762 5.32636C3.68919 5.04453 3.51008 4.78204 3.50053 4.3763C3.56665 4.0739 3.6607 3.8496 3.91014 3.65622C4.24758 3.46396 4.64956 3.44202 4.9738 3.67709Z" fill="#797979"/>
<path d="M13.4156 0.0355115C13.681 0.170793 13.822 0.384074 13.914 0.660172C13.9196 0.753812 13.9221 0.847605 13.923 0.941398C13.924 1.02783 13.924 1.02783 13.925 1.11603C13.9254 1.17844 13.9258 1.2408 13.9262 1.30504C13.9266 1.36923 13.927 1.43342 13.9274 1.49959C13.9281 1.63563 13.9287 1.77167 13.9291 1.90771C13.9296 2.08113 13.9314 2.2545 13.9334 2.42792C13.935 2.59423 13.9353 2.76054 13.9357 2.92689C13.9366 2.9887 13.9375 3.05055 13.9384 3.11428C13.9374 3.4963 13.9124 3.80125 13.6356 4.09039C13.3895 4.30672 13.1878 4.33196 12.8728 4.32693C12.6012 4.30439 12.4486 4.18246 12.2732 3.98634C12.1063 3.78657 12.0794 3.62757 12.0769 3.37037C12.0763 3.31171 12.0757 3.25306 12.075 3.19263C12.0746 3.12916 12.0742 3.06568 12.0738 3.00027C12.0734 2.93492 12.073 2.86961 12.0726 2.80233C12.0719 2.6639 12.0713 2.52547 12.0709 2.38699C12.0704 2.21052 12.0687 2.03406 12.0666 1.85754C12.0649 1.68834 12.0647 1.51909 12.0643 1.34988C12.0634 1.28691 12.0626 1.22395 12.0616 1.1591C12.0626 0.760109 12.0965 0.463953 12.3763 0.158707C12.6963 -0.0433518 13.0527 -0.080676 13.4156 0.0355115Z" fill="#797979"/>
<path d="M13.359 21.7201C13.6491 21.8758 13.8107 22.0881 13.9141 22.3945C13.9273 22.5349 13.9273 22.5349 13.928 22.6889C13.9288 22.7759 13.9288 22.7759 13.9295 22.8646C13.9294 22.9267 13.9294 22.9889 13.9293 23.0529C13.9296 23.1172 13.9298 23.1815 13.93 23.2478C13.9303 23.3836 13.9304 23.5195 13.9301 23.6553C13.9298 23.8289 13.9307 24.0024 13.9319 24.1759C13.9328 24.3422 13.9326 24.5085 13.9325 24.6748C13.933 24.7368 13.9334 24.7989 13.9339 24.8628C13.9319 25.2485 13.9008 25.4877 13.6379 25.7842C13.3841 26.0071 13.1826 26.0258 12.8501 26.0188C12.6195 25.9908 12.4469 25.9183 12.2891 25.7461C12.0612 25.3861 12.0562 25.0769 12.0589 24.6573C12.0588 24.5922 12.0586 24.5272 12.0584 24.4601C12.0581 24.3229 12.0585 24.1858 12.0595 24.0487C12.0606 23.8737 12.06 23.6988 12.0587 23.5239C12.0578 23.3558 12.0585 23.1877 12.0589 23.0196C12.0585 22.9572 12.0581 22.8947 12.0577 22.8304C12.062 22.4382 12.0991 22.1954 12.3702 21.8998C12.6643 21.6724 12.9976 21.5946 13.359 21.7201Z" fill="#797979"/>
<path d="M0.941382 12.0769C0.999019 12.0763 1.05666 12.0756 1.11607 12.0749C1.17843 12.0746 1.24079 12.0742 1.30503 12.0738C1.36926 12.0734 1.43345 12.073 1.49957 12.0726C1.63561 12.0718 1.77166 12.0713 1.9077 12.0709C2.08112 12.0704 2.25453 12.0686 2.42795 12.0666C2.59426 12.0649 2.76057 12.0647 2.92688 12.0643C2.98873 12.0634 3.05058 12.0625 3.11431 12.0616C3.49629 12.0625 3.80123 12.0875 4.09038 12.3643C4.30437 12.6078 4.33433 12.8111 4.33068 13.1234C4.30219 13.3841 4.17909 13.5469 3.98953 13.7268C3.76375 13.8754 3.58089 13.9267 3.31114 13.928C3.22415 13.9287 3.22415 13.9287 3.13549 13.9295C3.07333 13.9294 3.01112 13.9294 2.94709 13.9293C2.8828 13.9295 2.81851 13.9297 2.75229 13.93C2.6164 13.9303 2.48056 13.9303 2.34467 13.9301C2.17115 13.9298 1.99763 13.9306 1.82411 13.9318C1.6578 13.9327 1.49155 13.9326 1.32529 13.9325C1.26323 13.9329 1.20118 13.9334 1.13725 13.9339C0.751562 13.9318 0.512382 13.9007 0.21582 13.6379C-0.00903956 13.3818 -0.022395 13.1816 -0.0158443 12.8466C0.00771823 12.6219 0.0624604 12.5175 0.203124 12.3398C0.450429 12.148 0.632124 12.08 0.941382 12.0769Z" fill="#797979"/>
</g>
<defs>
<clipPath id="clip0_73_10">
<rect width="26" height="26" fill="white"/>
</clipPath>
</defs>
</svg>
