<svg width="31" height="31" viewBox="0 0 31 31" fill="none" xmlns="http://www.w3.org/2000/svg">
<g clip-path="url(#clip0_73_23)">
<path d="M17.6191 9.32419C17.6903 9.34224 17.6903 9.34224 17.763 9.36064C20.1877 9.99118 22.2727 11.4958 23.5567 13.6583C24.1414 14.6917 24.5652 15.7774 24.7637 16.9531C24.7741 17.0147 24.7847 17.0764 24.7955 17.1399C24.8289 17.4157 24.8318 17.6839 24.8301 17.9613C24.83 18.0431 24.83 18.0431 24.8298 18.1265C24.8295 18.2992 24.8287 18.4719 24.828 18.6447C24.8277 18.7623 24.8274 18.8799 24.8272 18.9976C24.8265 19.2849 24.8255 19.5721 24.8242 19.8594C24.8626 19.8664 24.901 19.8735 24.9406 19.8808C26.4626 20.1637 27.9145 20.6337 29.369 21.1535C29.4211 21.1721 29.4732 21.1907 29.5269 21.2098C29.6757 21.263 29.8243 21.3167 29.9728 21.3707C30.0171 21.3865 30.0614 21.4024 30.1071 21.4187C30.5126 21.5676 30.8092 21.6969 31 22.0996C31.0464 22.4416 31.0467 22.7275 30.8978 23.0418C30.72 23.2293 30.5593 23.3503 30.3026 23.4015C29.7675 23.4125 29.3334 23.2569 28.8426 23.0658C28.6025 22.9726 28.3607 22.8837 28.1193 22.7942C28.0709 22.7761 28.0224 22.7581 27.9725 22.7395C26.3698 22.1444 24.7152 21.6738 22.9964 21.6531C22.9284 21.6508 22.8604 21.6485 22.7903 21.6462C21.7008 21.6353 20.6785 22.0115 19.6729 22.3947C16.5635 23.5771 14.2787 23.5279 11.1741 22.3449C7.81641 21.0708 4.65677 22.0011 1.45087 23.3128C1.06507 23.4381 0.696033 23.4427 0.32924 23.2689C0.131252 23.0811 0.0145791 22.924 -0.02629 22.6504C-0.0266533 22.367 -0.0218706 22.1506 0.0908071 21.8877C0.388819 21.5897 0.803989 21.4559 1.1953 21.3153C1.26045 21.2916 1.26045 21.2916 1.32687 21.2674C1.46722 21.2164 1.60769 21.166 1.74828 21.1157C1.79665 21.0983 1.84509 21.0809 1.89498 21.0631C5.25558 19.8594 5.25558 19.8594 6.23631 19.8594C6.22657 19.8191 6.21682 19.7788 6.20683 19.7373C6.16941 19.5197 6.16481 19.3065 6.16348 19.0864C6.16311 19.0409 6.16275 18.9954 6.16245 18.9485C6.16184 18.852 6.16148 18.7555 6.16124 18.6591C6.16063 18.5151 6.15875 18.3713 6.15688 18.2274C6.15088 17.3753 6.26659 16.5619 6.52016 15.7459C6.53554 15.6958 6.55098 15.6457 6.5669 15.5941C7.02742 14.1486 7.81126 12.9723 8.83983 11.8672C8.8965 11.8056 8.8965 11.8056 8.95432 11.7427C11.0637 9.53593 14.6714 8.55658 17.6191 9.32419ZM13.623 11.2011C13.5487 11.2217 13.4743 11.2424 13.3976 11.2636C11.3794 11.8814 9.78648 13.2771 8.78806 15.119C8.34056 15.9836 8.04564 17.0115 8.04467 17.9845C8.04461 18.0635 8.04455 18.1424 8.04443 18.2237C8.04455 18.2643 8.04467 18.3049 8.04485 18.3466C8.04515 18.4705 8.04485 18.5942 8.04443 18.718C8.04455 18.7969 8.04461 18.8758 8.04467 18.9571C8.04473 19.0286 8.04479 19.1 8.04491 19.1737C8.05242 19.367 8.07694 19.5484 8.11327 19.7383C8.16703 19.7391 8.2208 19.74 8.2762 19.7409C9.59897 19.7903 10.8154 20.1941 12.0488 20.6465C14.2929 21.4691 15.9316 21.754 18.2251 20.9161C18.4285 20.8419 18.6326 20.7692 18.8364 20.6964C18.8771 20.6818 18.9178 20.6672 18.9598 20.6522C20.2594 20.1866 21.4971 19.7766 22.8867 19.7383C23.0716 18.7565 23.0361 17.5508 22.7656 16.5898C22.745 16.5155 22.7244 16.4411 22.7032 16.3644C22.1083 14.4211 20.7894 12.8284 19.0124 11.8532C18.486 11.5748 17.9517 11.3604 17.3769 11.2011C17.3082 11.1818 17.2394 11.1625 17.1686 11.1425C16.0508 10.8821 14.7295 10.8896 13.623 11.2011Z" fill="#797979"/>
<path d="M13.8406 25.7424C15.4043 26.3329 16.4834 26.0209 17.9935 25.4446C20.1234 24.6403 22.1211 25.0481 24.2187 25.7665C24.2804 25.7875 24.2804 25.7875 24.3432 25.8089C25.5547 26.225 25.5547 26.225 25.8913 26.5536C26.0141 26.8604 26.0233 27.1622 25.9746 27.4882C25.8362 27.7698 25.6674 27.9314 25.3691 28.0332C24.8385 28.1072 24.4125 27.9513 23.9274 27.7531C23.4042 27.5493 22.8844 27.3612 22.3418 27.2158C22.2902 27.2019 22.2387 27.1879 22.1855 27.1736C20.7011 26.7871 19.5366 26.934 18.1224 27.458C16.3614 28.1061 14.9451 28.2059 13.1684 27.5685C13.1279 27.5539 13.0873 27.5394 13.0455 27.5245C12.8431 27.4517 12.6413 27.3781 12.4401 27.3019C10.8798 26.7201 9.52679 26.8859 7.98321 27.4412C7.93404 27.4588 7.88494 27.4764 7.83432 27.4946C7.58638 27.584 7.33917 27.675 7.09281 27.7686C6.5867 27.9572 6.12018 28.123 5.5703 28.0332C5.29081 27.9008 5.16294 27.7609 5.02537 27.4882C4.97609 27.1581 4.98432 26.8575 5.11619 26.5498C5.51084 26.1551 6.12073 26.0127 6.63743 25.8308C6.67873 25.8162 6.72008 25.8016 6.76264 25.7865C9.31803 24.8847 11.2942 24.7768 13.8406 25.7424Z" fill="#797979"/>
<path d="M3.26456 10.3022C3.49355 10.412 3.71454 10.5314 3.93554 10.6563C4.01128 10.6986 4.01128 10.6986 4.08848 10.7418C4.25275 10.8343 4.41592 10.9285 4.57885 11.0233C4.63122 11.0532 4.68366 11.0831 4.7376 11.1139C5.03628 11.2917 5.22882 11.4345 5.38866 11.7461C5.47761 12.1137 5.45702 12.3831 5.26757 12.7149C5.05602 12.9445 4.79222 13.0647 4.48046 13.0782C4.03593 13.0135 3.68663 12.7998 3.30361 12.5732C3.19759 12.5105 3.09103 12.4487 2.98441 12.3871C2.08807 11.8633 2.08807 11.8633 1.93749 11.4434C1.88869 11.1171 1.91515 10.8441 2.09952 10.5659C2.41696 10.2044 2.82408 10.1282 3.26456 10.3022Z" fill="#797979"/>
<path d="M28.5121 10.2727C28.7521 10.3898 28.9041 10.5386 29.0226 10.7781C29.1257 11.0887 29.0927 11.3529 28.9906 11.6591C28.7935 11.9561 28.4624 12.109 28.1592 12.2796C28.0182 12.3602 27.8795 12.444 27.7407 12.5283C27.6389 12.5892 27.5371 12.6502 27.4353 12.7111C27.3871 12.7404 27.3389 12.7698 27.2892 12.8001C26.9667 12.9897 26.6911 13.1135 26.3069 13.055C26.0137 12.9549 25.834 12.8726 25.6719 12.5938C25.5388 12.3087 25.5156 12.0453 25.6113 11.7461C25.8065 11.3333 26.1705 11.1711 26.5574 10.9552C26.6205 10.919 26.6837 10.8827 26.7487 10.8454C28.041 10.1089 28.041 10.1089 28.5121 10.2727Z" fill="#797979"/>
<path d="M8.69226 4.97618C8.98997 5.17374 9.14188 5.50499 9.3125 5.80894C9.39254 5.94698 9.47761 6.08104 9.56359 6.21551C10.1461 7.14266 10.1461 7.14266 10.0891 7.66579C10.0148 7.9463 9.89514 8.10409 9.67239 8.28355C9.30148 8.4437 9.02 8.44194 8.6497 8.30577C8.38293 8.13654 8.23113 7.8358 8.07686 7.56831C8.0174 7.46532 8.0174 7.46532 7.95674 7.36021C7.93645 7.32479 7.91617 7.28937 7.89528 7.25286C7.83334 7.1446 7.77086 7.03671 7.70837 6.92881C7.19554 6.03696 7.19554 6.03696 7.26565 5.57026C7.35012 5.32038 7.48066 5.1448 7.7008 4.99888C8.03623 4.83298 8.34502 4.86041 8.69226 4.97618Z" fill="#797979"/>
<path d="M23.2992 4.99888C23.5211 5.14595 23.6458 5.32044 23.7344 5.57032C23.8314 6.07298 23.5503 6.4781 23.3106 6.90235C23.2682 6.97803 23.2682 6.97803 23.225 7.05529C23.1324 7.21949 23.0383 7.38267 22.9435 7.5456C22.9136 7.59803 22.8837 7.65041 22.8528 7.70441C22.6751 8.00309 22.5324 8.19557 22.2207 8.35547C21.8555 8.44381 21.5808 8.42613 21.252 8.23438C20.962 7.92947 20.9163 7.70466 20.9201 7.29203C20.9742 6.90598 21.1807 6.60367 21.3844 6.27793C21.4252 6.20969 21.466 6.1414 21.508 6.0711C22.4184 4.56034 22.4184 4.56034 23.2992 4.99888Z" fill="#797979"/>
<path d="M28.4379 17.5324C28.4944 17.5321 28.5509 17.5318 28.6091 17.5314C28.7283 17.531 28.8475 17.5311 28.9668 17.5316C29.1487 17.5321 29.3305 17.5304 29.5125 17.5285C29.6285 17.5284 29.7447 17.5284 29.8607 17.5286C29.9149 17.5279 29.969 17.5272 30.0248 17.5265C30.3595 17.5302 30.5535 17.5766 30.8183 17.8008C31.064 18.117 31.0469 18.4458 31 18.8301C30.8702 19.104 30.7296 19.2478 30.4551 19.375C30.0777 19.472 29.6859 19.4469 29.2992 19.4468C29.1618 19.4469 29.0244 19.448 28.887 19.4492C28.7987 19.4493 28.7104 19.4495 28.6221 19.4495C28.5426 19.4498 28.463 19.45 28.381 19.4503C28.0537 19.4291 27.8106 19.3839 27.5602 19.1669C27.298 18.8598 27.2804 18.6762 27.2875 18.2824C27.3132 18.0427 27.3836 17.9144 27.5488 17.7403C27.8292 17.5168 28.095 17.5312 28.4379 17.5324Z" fill="#797979"/>
<path d="M1.13124 17.5324C1.18774 17.5321 1.24423 17.5318 1.30247 17.5314C1.42169 17.531 1.5409 17.5311 1.66018 17.5316C1.84207 17.5321 2.02389 17.5304 2.20583 17.5285C2.3219 17.5284 2.43803 17.5284 2.5541 17.5286C2.60823 17.5279 2.66235 17.5272 2.71812 17.5265C3.05282 17.5302 3.24681 17.5766 3.51171 17.8008C3.75734 18.117 3.74021 18.4458 3.69335 18.8301C3.56359 19.104 3.423 19.2478 3.14842 19.375C2.7711 19.472 2.3793 19.4469 1.99252 19.4468C1.85514 19.4469 1.71776 19.448 1.58038 19.4492C1.4921 19.4493 1.40377 19.4495 1.31549 19.4495C1.23593 19.4498 1.15637 19.45 1.07439 19.4503C0.747014 19.4291 0.503919 19.3839 0.253557 19.1669C-0.00861059 18.8598 -0.0262903 18.6762 -0.0191457 18.2824C0.00652614 18.0427 0.0769421 17.9144 0.242175 17.7403C0.522567 17.5168 0.788368 17.5312 1.13124 17.5324Z" fill="#797979"/>
<path d="M15.8633 2.96679C16.1409 3.0983 16.2798 3.2352 16.4082 3.51172C16.4353 3.70716 16.4351 3.90091 16.4345 4.09805C16.4348 4.15454 16.4351 4.21103 16.4354 4.26922C16.4358 4.3885 16.4358 4.50771 16.4352 4.62693C16.4347 4.80887 16.4364 4.99069 16.4384 5.17264C16.4385 5.28871 16.4384 5.40477 16.4382 5.5209C16.4393 5.60204 16.4393 5.60204 16.4403 5.68486C16.4366 6.01969 16.3901 6.21344 16.166 6.47851C15.9361 6.65876 15.7297 6.70568 15.4395 6.7207C15.1022 6.66258 14.9341 6.55595 14.7129 6.29687C14.5891 6.11118 14.5764 6.07109 14.5742 5.86136C14.5734 5.81044 14.5727 5.75952 14.5719 5.70702C14.5718 5.65217 14.5716 5.59725 14.5715 5.54076C14.571 5.48409 14.5707 5.42742 14.5702 5.36899C14.5696 5.24905 14.5693 5.1291 14.5693 5.00916C14.5691 4.82613 14.5669 4.64322 14.5646 4.46024C14.5642 4.34363 14.564 4.22696 14.5639 4.11034C14.563 4.05585 14.5621 4.0013 14.5613 3.94517C14.5637 3.60889 14.6082 3.41442 14.834 3.14844C15.1502 2.90286 15.479 2.91993 15.8633 2.96679Z" fill="#797979"/>
</g>
<defs>
<clipPath id="clip0_73_23">
<rect width="31" height="31" fill="white"/>
</clipPath>
</defs>
</svg>
