<svg width="33" height="27" viewBox="0 0 33 27" fill="none" xmlns="http://www.w3.org/2000/svg">
<path d="M15.2066 16.1575C16.4489 16.1575 17.4816 15.0075 17.4816 13.6275C17.4816 12.2475 16.4489 11.0975 15.2066 11.0975C13.9642 11.0975 12.9315 12.2475 12.9315 13.6275C12.9315 15.0075 13.9131 16.1575 15.2066 16.1575Z" fill="black"/>
<path d="M32.0165 8.625C31.5001 8.625 31.0349 9.085 31.0349 9.7175V15.41C30.2067 12.7075 27.9316 10.7525 25.1913 10.7525H18.4172V17.25H31.0349V17.9975H10.9632V1.0925C10.9632 0.5175 10.5491 0 9.9816 0C9.41411 0 9 0.46 9 1.0925V23H10.9632V20.125H31.0298V23H32.993V9.7175C32.9418 9.085 32.5277 8.625 32.0114 8.625H32.0165Z" fill="black"/>
</svg>
