<svg width="84" height="57" viewBox="0 0 84 57" fill="none" xmlns="http://www.w3.org/2000/svg">
<path d="M83.9979 28.5007C83.9979 30.9384 75.2829 32.2731 63.7863 32.2731H51.0303L46.985 36.8005H48.6271C49.4203 36.8005 50.066 37.2048 50.066 37.7015V40.5435C50.066 41.0402 49.4203 41.4444 48.6271 41.4444H42.8328L38.7875 45.9719H41.396C42.1892 45.9719 42.8349 46.3762 42.8349 46.8728V49.7149C42.8349 50.2115 42.1892 50.6158 41.396 50.6158H34.6353L29.6984 56.1379C29.2216 56.6707 28.3236 57 27.3486 57H21.7467C20.8167 57 20.1667 56.4244 20.4767 55.8755L30.4104 38.3092V32.2718H23.7352C19.181 32.2718 15.1336 32.0214 11.7254 31.6386L7.90674 37.9679C7.55395 38.5502 6.66236 38.9357 5.666 38.9357H1.55655C0.945046 38.9357 0.48749 38.5823 0.613638 38.2075L3.32904 30.1486C1.17382 29.5556 0 28.9505 0 28.498C0 28.0455 1.17382 27.4404 3.32904 26.8474L0.613638 18.7885C0.485351 18.4137 0.942907 18.0602 1.55655 18.0602H5.66813C6.66449 18.0602 7.55609 18.4458 7.90888 19.0281L11.7275 25.3574C15.1357 24.9759 19.1831 24.7242 23.7373 24.7242H30.4125V18.6867L20.4788 1.1245C20.1688 0.575636 20.8188 0 21.7489 0H27.3507C28.3236 0 29.2237 0.329317 29.7005 0.862115L34.6374 6.3842H41.3981C42.1914 6.3842 42.8371 6.78849 42.8371 7.28514V10.1272C42.8371 10.6238 42.1914 11.0281 41.3981 11.0281H38.7896L42.8349 15.5556H48.6292C49.4225 15.5556 50.0682 15.9598 50.0682 16.4565V19.2985C50.0682 19.7952 49.4225 20.1995 48.6292 20.1995H46.9871L51.0325 24.7269H63.7884C75.2851 24.7269 84 26.0616 84 28.4993L83.9979 28.5007Z" fill="url(#paint0_linear_346_138)"/>
<defs>
<linearGradient id="paint0_linear_346_138" x1="42" y1="0" x2="42" y2="57" gradientUnits="userSpaceOnUse">
<stop offset="1" stop-color="#A00E12"/>
</linearGradient>
</defs>
</svg>
