<svg width="22" height="19" viewBox="0 0 22 19" fill="none" xmlns="http://www.w3.org/2000/svg">
<g clip-path="url(#clip0_353_106)">
<path d="M10.9777 0C13.7958 0 16.0824 2.53607 16.0824 5.66307C16.0824 8.79006 13.7958 11.3261 10.9777 11.3261C8.15957 11.3261 5.87292 8.79006 5.87292 5.66307C5.87292 2.53607 8.15957 0 10.9777 0Z" fill="#525252"/>
<path d="M16.8506 9.27429C16.7166 9.27429 16.5782 9.3974 16.5782 9.52051C16.5782 9.64362 16.7121 9.76673 16.8506 9.76673C19.3784 9.76673 21.4149 11.6134 21.4149 13.9114V16.7019C21.4149 17.6868 20.5128 18.5076 19.4275 18.5076H2.52781C1.44255 18.5076 0.540398 17.6868 0.540398 16.7019V13.9114C0.540398 11.6134 2.57247 9.76673 5.10475 9.76673C5.23873 9.76673 5.37718 9.64362 5.37718 9.52051C5.37718 9.3974 5.2432 9.27429 5.10475 9.27429C2.30451 9.27429 0 11.3672 0 13.9114V16.7019C0 17.9741 1.12992 19 2.52781 19H19.4677C20.8701 19 21.9955 17.9741 21.9955 16.7019V13.9114C21.9955 11.3672 19.691 9.27429 16.8461 9.27429H16.8506Z" fill="#525252"/>
</g>
<defs>
<clipPath id="clip0_353_106">
<rect width="22" height="19" fill="white"/>
</clipPath>
</defs>
</svg>
