<svg width="16" height="18" viewBox="0 0 16 18" fill="none" xmlns="http://www.w3.org/2000/svg">
<path d="M15.3107 0.489391C16.0196 1.0605 15.7289 2.5979 14.661 3.92361L12.1363 7.05767L13.2832 9.10613L13.329 9.04925C13.4746 8.86849 13.7654 8.8606 13.9784 9.03222L14.4914 9.44545C14.7041 9.6168 14.7589 9.90259 14.613 10.0836L14.1513 10.6568L15.6934 13.4109C15.8045 13.6096 15.7961 13.8354 15.6716 13.9899L15.3983 14.3293C15.2053 14.5688 14.8099 14.5564 14.5525 14.3035L9.94742 9.77553C8.50765 11.5628 6.76703 13.2467 5.41691 14.4596L6.80452 16.9378C6.87551 17.0644 6.86975 17.2085 6.79045 17.307L6.61598 17.5236C6.49285 17.6764 6.24052 17.6689 6.07623 17.5072L4.12284 15.5864C3.90151 15.7729 3.7132 15.9283 3.5673 16.0475C3.46708 16.1291 3.33775 16.1651 3.20411 16.1571C3.07047 16.1491 2.93219 16.0968 2.81441 16.0019C2.57884 15.8122 2.49281 15.5066 2.60958 15.276C2.6952 15.1078 2.8067 14.891 2.94179 14.635L0.649161 13.1354C0.456236 13.0093 0.394895 12.7646 0.518254 12.6115L0.692719 12.3949C0.772241 12.2962 0.911652 12.2601 1.05049 12.3025L3.76729 13.1307C4.66494 11.5533 5.93957 9.49409 7.37935 7.70679L1.97468 4.17141C1.67224 3.97376 1.57649 3.59001 1.76945 3.35046L2.04283 3.01111C2.16729 2.8566 2.38586 2.80002 2.60394 2.86657L5.62325 3.78691L6.08496 3.21375C6.23057 3.033 6.52136 3.02511 6.7344 3.19672L7.24737 3.60995C7.46009 3.78131 7.51483 4.06709 7.369 4.24812L7.32318 4.305L9.56885 4.98946L12.0935 1.85539C13.1612 0.529959 14.6017 -0.0817155 15.3107 0.489391Z" fill="black"/>
</svg>
